<?xml version="1.0" encoding="UTF-8"?>
<svg id="Layer_1" data-name="Layer 1" xmlns="http://www.w3.org/2000/svg" xmlns:xlink="http://www.w3.org/1999/xlink" viewBox="0 0 367.89 103.84">
  <defs>
    <style>
      .cls-1 {
        fill: #fff;
        font-family: Chiller-Regular, Chiller;
        font-size: 82.8px;
      }

      .cls-2 {
        fill: url(#linear-gradient);
      }

      .cls-2, .cls-3, .cls-4 {
        stroke-width: 0px;
      }

      .cls-3 {
        fill: url(#linear-gradient-2);
      }

      .cls-4 {
        fill: #fbdd2a;
      }
    </style>
    <linearGradient id="linear-gradient" x1="0" y1="54.18" x2="367.89" y2="54.18" gradientUnits="userSpaceOnUse">
      <stop offset="0" stop-color="#febd18"/>
      <stop offset="1" stop-color="#f58322"/>
    </linearGradient>
    <linearGradient id="linear-gradient-2" x1="9.83" y1="58.92" x2="327.89" y2="58.92" gradientUnits="userSpaceOnUse">
      <stop offset="0" stop-color="#d41c55"/>
      <stop offset="1" stop-color="#c54f9d"/>
    </linearGradient>
  </defs>
  <g>
    <g>
      <path class="cls-4" d="M12.51,13.8c.33.19.66.42.98.62-.66.27-1.63.19-2.71-.07,2.58,1.31,5.44,2.11,8.4,2.57,2.97.46,6.02.63,9.05.45,6.09-.43,11.95-1.8,16.6-3.87,3.32.21,6.28-.99,6.61-2.69.32-1.7-2.09-3.25-5.42-3.47-.73-.22-1.58-.37-2.11-.66-2.36-1.34-4.94-2.55-7.71-3.61-2.77-1.06-5.76-1.94-8.86-2.76,1.18.57,2.43,1.1,3.63,1.65-1.81-.47-3.58-.97-5.58-1.14.2.33.45.65.65.98C23,.48,19.36-.1,15.92.01c-3.43.08-6.62.77-8.86,2.21-4.49,2.87-3.37,7.44,2.74,10.25l2.71,1.32Z"/>
      <path class="cls-4" d="M23.86,24.45c-3.78-1.37-7.41-2.75-10.99-4.25l-.68-.64.09,2.64.08-.16c3.55-1.91,9.26-2.51,14.48-2.8.62-.08,1.25-.2,1.88-.3.91-.31,1.52-.79,1.72-1.34.48-1.25-1.11-2.47-3.52-2.8l-2.77-.4c-3.34-.98-7.68-1.57-11.64-1.56-3.95,0-7.59.77-9.64,2.82-.92.95-.28,2.31-.19,3.52-.39,1.7,2.05,3.44,5.45,3.86,3.4.43,6.4-.62,6.73-2.37.57.16,1.16.32,1.73.47-.46.18-.93.36-1.4.54,1.05-1.45,4.17-1.6,6.52-2.26l3.48-.21-1.78-4.17-1.81.43c.13.18.38.45.36.47-1.73.45-3.41.9-5.14,1.3-1.73.41-3.49.75-5.37.92l-4.78,1.06c-1.32.66-1.29,1.81.06,2.64l2.03,1.06c-.31-.2-.61-.4-.91-.6,2.39.65,4.83,1.3,7.31,1.81,2.47.52,4.94,1.05,7.33,1.69.75.24,1.69.13,2.11-.25.36-.38.05-.87-.73-1.09Z"/>
      <g>
        <path class="cls-4" d="M6.69,23.75c-.76-.38-1.49-.77-2.61-.8-.28.16-.43.24-.5.28.4.22.94.53,1.48.83,1.07.6,1.66.26,1.63-.31Z"/>
        <path class="cls-4" d="M3.58,23.24c-.37-.21-.62-.35-.62-.35.14.14.27.28.4.42.12-.02.13-.02.13-.02,0,0,0,0,.09-.05Z"/>
        <path class="cls-4" d="M224.05,17.88c16.27,2.07,31.94,4.5,47.12,6.29.51.06.95-.08.99-.34.04-.22-.34-.48-.81-.52-15.16-1.82-30.76-4.25-47.04-6.33-.55-.05-1.01.1-1.1.33-.04.25.33.49.84.57Z"/>
        <path class="cls-4" d="M338.48,47.46c-.35.23-.32.49.07.63.34.12.92.09,1.27-.14.3-.19.26-.51-.08-.63-.39-.14-.97-.05-1.27.14Z"/>
        <path class="cls-2" d="M336.5,67.42c-2.2.56-4.3,1.16-6.16,1.97-.35.13-.75.13-1.05.06.15.4-.26.79-1.06,1.03-7.9,2.23-16.33,3.75-24.96,4.64-8.6.9-17.28,1.22-25.8,1.48-.13.32-.37.62-.77.89-1.24.93-3.62,1.26-6.04.87l-1.82-.41c-7.35-1.24-14.57-2.44-21.68-3.8-1.5.31-3.21.45-5.06.36-6.25.64-12.44,1.26-18.66,1.69.37.31.58.66.56,1.03-.17.86-1.63,1.4-3.29,1.24-.84-.03-1.67-.07-2.51-.1,2.39.33,4.78.78,7.15,1.2.35.05.67.13.95.23,2.64.26,5.32.48,8.08.66,23.98,1.49,48.24,1.21,72.54-2.68.4-.14,1.02-.12,1.37.09.24.21.2.5-.25.61-7.66,2.24-14.87,4.54-22.31,6.45-7.43,1.92-15.09,3.46-23.53,4.09-10.03.77-19.8,1.31-29.29,1.86-4.67.28-9.36.57-14.07.86-4.66.38-9.31.65-14.03.99-19.72-.86-38.31,1.33-59.12,3.31-7.01.67-14.04,1.29-20.98,1.81-7.02.53-13.94.98-20.97,1.35-6.97.39-14.06.64-21.13.89-7.15.17-14.28.36-21.61.36-2.74.17-5.41.08-7.92-.27-2.52-.37-4.86-.96-6.89-1.73-4.06-1.54-6.89-3.77-7.55-6.37-.76-3.14,1.79-6.02,6.29-7.96-.89-.04-1.77-.07-2.65-.11-1.4-.24-2.79-.45-4.2-.72-3.98-.77-7.36-2.17-9.44-4l-2.87-2.27c-3.78-4.3-9.93-8.15-12.85-12.63l.79-1.57-.72-.52c-2.4-1.31-3.96-3.07-4.42-4.75l.35-1.93c.65-2.2,1.99-4.16,4.04-6.01-.02-.83.26-1.63.8-2.37-1.54-2.1-2.19-4.27-.77-6.49-.95-.65-.74-1.48.46-1.9.41-.14.9-.21,1.4-.22,0,0-.01,0-.01,0-.51-.54-.66-.7-1.36-1.32-.97-.22-1.52-.42-1.52-.42q-2.56-.58-4.77-1.11c-1.88-.86-2.99-1.92-2.99-1.92-1.87-3.68-1.86-3.68-1.42-5.15.13-.14.28-.27.44-.39-1.64-.65-1.76-.7-2.2-.9-.45-.31-.75-.65-.75-.65q0-.82-.27-1.13c-.07-.32-.02-.62-.02-.62q1.01-.82,1.05-1.07c.24-.22.56-.39.56-.39,1.11-.17,1.55-.24,1.74-.27,2.19,2.3,2.2,2.31,2.2,2.31l.56-.68.48,1.01-.25-.91,1.15.64-1.3-.9q2.78.57,3.91.64c1.16.21,2.17.09,2.29.08-.08-.28-.08-.48-.08-.48q2.99.57,5.91,1.12c.26.21.47.42.66.62.29-.22.87-.33,1.44-.22.52.08,1.03.17,1.54.25.12-.04.23-.07.34-.1,0-.04,0-.07,0-.07.53-.13.9-.23,1.32-.33.27-.08.27-.08.27-.08,0,0,.01,0,.01.01.91-.25,2.22-.52,5.72-1.51.91.14,1.76.32,2.56.51-.26-.14-.5-.28-.74-.43-.47-.3,0-1.06-.27-1.14-3.21-.92-6.54-1.71-9.92-2.41-3.37-.72-6.84-1.23-10.2-2.02-1.23-.02-2.34-.58-2.48-1.22-.12-.66.79-1.16,2.04-1.13,3.49-.69,7.2-1.28,10.97-1.52,1.89-.13,3.8-.18,5.72-.18,1.93-.03,3.88-.02,5.83.07,7.78.39,15.68,1.45,22.91,3.21,3.83.41,7.68.77,11.55,1.1l-.55-.39c1,.21,2.01.38,3.02.58.11,0,.22.02.33.02-.77-.47-1.53-.93-2.29-1.4-.52-.14-1.05-.27-1.58-.41-4.47-.31-8.75-.99-12.96-1.82-4.19-.88-8.32-1.85-12.59-2.63-4.55-.93-8.42-2.44-12.67-3.6-1.11-.11-1.84-.69-1.69-1.26.15-.55,1.18-.87,2.26-.77,14.24-.29,30.73.68,42.53,5.44,2.69,0,5.28.36,7.44,1.22.04,0,.08.01.12.02-.57-.4-1.1-.77-1.67-1.17,2.01.27,3.09,1.24,4.94,1.63-.23-.52-.48-1.09-.7-1.6,5.01.4,10.19.44,15.32.62,5.16.17,10.19.51,14.91,1.55.38.02.73.07,1.09.11,4.02-1.24,8.06-2.45,12.89-2.73-1.63-.13-3.23-.26-4.86-.39,3.46-.79,6.95-1.35,10.69-1.38,10.15-.12,21.69,2.15,27.17,6.34,19.9-.74,40.1-.94,60.54-.65,1.06,0,1.98.39,2.14.88.08.48-.63.9-1.69.9-14.49.63-29.17,1.26-43.89,1.9,3.03.19,6.08.44,9.14.69,3.06.23,6.12.46,9.2.69,3.09.27,6.18.52,9.29.74,1.55.1,3.11.21,4.67.31,1.57.12,3.14.24,4.71.36,1.61.03,3.23.05,4.85.08,1.61.02,3.19.25,4.76.54,16.13,1.17,30.95,3.2,46.52,3.42,13.28.17,24.6-.13,36.97-1.59,8.63-1.02,16.91-2.55,25.36-4.05,8.44-1.51,17-3.01,26.19-4.13,2.43-.45,4.79.16,5.2,1.34.41,1.18-1.27,2.52-3.72,2.97-19.05,4.24-37.15,8.28-55.29,9.64-18.32,1.37-37.65.27-58.12-2.09-4.46-.49-8.84-.98-13.2-1.46.05.17.09.34.08.51-.04.67-.5,1.25-1.24,1.7,4.99.59,9.94,1.34,14.89,2.19,13.92-.03,27.55.06,41.58,1.61,9.65,1.06,18.18,2.71,27.06,3.74,11.22-1.12,22.48-3.14,34.07-5.1.46-.14.95-.07,1.14.15.19.22-.04.48-.51.62-7.89,2.43-15.96,4.38-24.09,5.95,1.33.69,2.15,1.61,2.11,2.71-.04,1.14-1,2.21-2.51,3.02l5.64-.32c1.17-.06,2.11.3,2.11.86.01.61-.89,1.12-2,1.2-7.71.53-15.37.83-23,.78-9.16.65-18.39.79-27.71.53,1.25.84,2.15,1.82,2.55,2.88,0,0,0,.02,0,.02,1.45.07,2.89.13,4.32.2,13.27-.77,26.39-1.96,39.66-3.67,13.28-1.66,26.7-3.57,40.38-4.95.53-.07.99.08,1.03.34.03.26-.36.52-.84.56-8.26.83-16.43,1.86-24.54,2.9.01,0,.02,0,.03,0,.34.12.42.4.08.63-.3.2-.94.27-1.27.15-.39-.14-.38-.43-.08-.62-15.12,1.97-29.94,3.88-44.84,4.91,13.81.23,27.54-.58,41.4-1.4,1.48-.47,2.96-.93,4.46-1.4.41-.1.97,0,1.15.21.13.2-.15.49-.57.6-.42.12-.83.25-1.25.37,2.62-.17,4.73.7,4.8,2.03-.03,1.38-2.21,2.68-4.95,2.9-7.31.99-14.62,1.72-21.94,2.13l-2.37.34c-.8.24-1.59.48-2.38.73,11.45.18,22.89-.2,34.23-.75.97-.12,1.83.17,1.89.64.06.47-.69.96-1.66,1.08-9.88,2.06-19.92,3.79-30.14,4.92-10.22,1.15-20.62,1.56-30.91,1.42-6.84,1.69-13.74,3.24-20.74,4.66.86.11,1.73.22,2.61.3,11.15.97,21.71.17,32.13-1.3,10.46-1.46,20.64-3.69,31.37-5.19.54-.11,1,.06,1.08.29.07.23-.28.5-.83.55-10.48,1.67-20.15,4.15-30.89,5.45-8.86,1.06-17.28,1.67-25.48,2.61,8.31.35,16.57.02,24.83-.72,8.28-.73,16.5-1.92,24.7-3.04.72-.16,1.45-.09,1.92.13.03-.14.17-.27.39-.36,2.02-.8,4.23-1.46,6.48-2.04.43-.15.98-.1,1.23.14.24.19,0,.45-.48.63ZM53.41,34.76c-.15-.11-.28-.21-.4-.29.43.16.89.32,1.4.51l1.95,1.94s-1.48-1.05-2.95-2.16ZM28.72,41.23s0,0,.01,0c-.63-.66-1.09-1.13-1.09-1.13.44.46.79.83,1.08,1.13ZM187.62,23.11c-4.38-.1-8.74-.3-13.05-.54-4.32-.26-8.65-.72-12.93-1.25,2.1-.13,4.18-.27,6.29-.37,6.54.58,13.08,1.23,19.7,2.16ZM37.18,27.07c2.16,1.1,3.84,2.41,5.44,3.71,1.45-.21,2.97-.27,4.5-.18,4.12.22,8.13.55,12.11.89-.51-.69.44-.6.92-.68.5-.05,1-.11,1.49-.16-4.23-.49-8.48-1.02-12.76-1.71-3.86-.6-8.08-.91-11.71-1.86ZM7.95,28c-.11-.1-.21-.18-.34-.28l.84-.95s-.21.53-.5,1.23ZM6.61,29.61c.19.06.38.13.59.2-.24.36-.42.2-.59-.2ZM12,31.39c-.31-.3-.49-.49-.74-.62.74.62.74.62.74.62ZM14.32,61.68l2.49-4.97-2.68,4.75.19.22Z"/>
      </g>
    </g>
    <path class="cls-3" d="M317.51,87.49c-1.34-.4-2.68-.8-4.01-1.19-24.64-6.21-49.56-6.84-77.12-10.96-19.29-3.66-41.47-3.31-60.83-3.73,45.86,3.44,94.17,5.54,137.66,18.65-4.59,2.6-10,4.57-16.17,4.05-7.39-1.27-14.75-2.35-22.07-3.34-7.32-1.03-14.61-1.82-21.88-2.61.04-1.3.13-3.85.17-5.13-20.76.65-40.71-1.99-60.72-3.93-20-1.93-40.06-3.31-60.78-.12,1.47.7.6,1.75.29,2.58-.1,0-.2,0-.29,0,.09,0,.19,0,.29,0-.28.73-.11,1.3,2.47,1.32-2.58-.02-2.74-.59-2.47-1.32,40.74-1.12,78.85,1.38,119.38,6.43-31.49-3.23-62.5-4.36-93.7-4.54-31.2-.18-62.59.68-94.94,1.75-2.75.09-8.27.28-11.03.37-11.11-3.42-22.2-4.25-33.23-3.62,2.58-6.61-8.88-18.97,13.38-17.54-.03-1.29-.1-3.88-.13-5.17C9.44,54.13.41,36.49,22.66,30.12c25.07-6.51,58.79-2.5,89.56-5.26,22.41-1.48,44.87-2.51,67.24.65,30.74,4.68,64.37,5.02,94.9,12.51,11.12,2.08,30.83-.1,36.23,4.29,3.92,2.24,3.94,5.01,3.18,8.01-18.28-2.15-36.53-3.8-54.58-5.53-22.11-2.91-44.26-5.67-66.41-8.95,21.65,4.24,43.87,6.76,66.41,8.95,17.98,2.34,35.96,4.9,53.88,7.95-.79,2.57-1.55,5.26-.58,7.92,0,0,5.55.54,8.32.8,10.78,7.53,7.49,16.29,1.65,22.22-1.47,1.18-3.13,2.5-4.96,3.81Z"/>
  </g>
  <text class="cls-1" transform="translate(63.61 78.57)"><tspan x="0" y="0">ArtArena</tspan></text>
</svg>