<?xml version="1.0" encoding="utf-8"?>
<!-- Generator: Adobe Illustrator 28.1.0, SVG Export Plug-In . SVG Version: 6.00 Build 0)  -->
<svg version="1.1" id="Layer_1" xmlns="http://www.w3.org/2000/svg" xmlns:xlink="http://www.w3.org/1999/xlink" x="0px" y="0px"
	 viewBox="0 0 750 289.6" style="enable-background:new 0 0 750 289.6;" xml:space="preserve">
<style type="text/css">
	.st0{fill:#FFFFFF;}
	.st1{opacity:0.63;}
	.st2{fill:#EFEFEF;}
	.st3{fill:#E5E5E5;}
	.st4{fill:#C4C4C4;}
	.st5{fill:#E0E0E0;}
	.st6{fill:#A0A0A0;}
	.st7{fill:#F2F2F2;}
</style>
<rect class="st0" width="750" height="289.6"/>
<g>
	<g class="st1">
		<path class="st2" d="M750.2,184.6c-3-0.8-6-1.1-9.1-1c-14.1,0.5-26.1,9.1-37.7,16.2c-3,1.8-6,3.6-9.1,5.2c-3.2,1.6-6.5,3-9.8,4.3
			c-3.5,1.4-7.1,2.9-10.3,4.8c-3,1.9-5.7,4.2-7.9,7c-8.4,10.9-8.7,25.5-11.6,38.4c-2.2,9.7-5.6,19.4-10.9,27.9h106.5L750.2,184.6
			L750.2,184.6z"/>
		<path class="st2" d="M305.6,22.3c9.9,9.2,22.2,16.2,35.8,17.8c6.8,0.8,13.6-0.1,20.1-2.2c6.8-2.3,13-5.7,19.2-9.2
			c12.9-7.2,26.2-13.8,40-19c7.2-2.8,16-5.1,22.7-9.6H287C292.5,8,298.5,15.6,305.6,22.3L305.6,22.3z"/>
		<path class="st2" d="M667.7,14.5c0.8,7.6,3.4,14.8,7.4,21.3c3.9,6.2,9,11.7,14.4,16.7c11.3,10.5,24.2,19.3,34.6,30.7
			c5.7,6.3,10.8,13.2,15.2,20.5c2.2,3.7,4.2,7.6,6.1,11.5c1.5,3.2,2.9,6.5,4.5,9.6c0,0.1,0.1,0.2,0.1,0.3V0h-81.6
			C667.5,4.8,667.2,9.6,667.7,14.5z"/>
		<path class="st2" d="M217.2,102.9c-2.3-6.2-5.1-12.3-9.1-17.6c-3.9-5.1-8.9-9.4-13.3-14.1c-2.2-2.4-4.2-4.9-6-7.7
			c-1.8-2.8-3.3-5.8-5.1-8.6c-3.6-5.8-8.4-10.6-13.6-15c-4.9-4.1-9.9-8.6-15.9-11c-5-2-11-2-15.6,1c-2,1.3-3.5,3-4.5,5.2l-15.4,12
			c-5.6,4.4-11.3,8.6-16.8,13.1c-4.4,3.6-8.7,8-10.2,13.6c-1.8,7,1.8,13.9,4.4,20.2l8.4,20.6c1.4,3.5,2.8,7,4.3,10.4
			c1.2,3,2.4,6,3.8,9c2.3,4.9,5.7,9.9,11.3,11.3c6.5,1.6,12.8-2,18.4-4.8c5.8-2.9,11.9-4.7,18.3-5.5c6.6-0.8,13.2-0.8,19.8-0.3
			c6.6,0.5,13.1,1.4,19.7,2.2c5.2,0.7,10.9,1,15.8-1.4c2.4-1.2,4.4-3.2,5.5-5.6c1.3-2.8,1.4-5.9,1.1-8.9c-0.4-3.1-1.3-6-2.2-9
			C219.3,109.1,218.3,106,217.2,102.9L217.2,102.9z"/>
		<path class="st2" d="M325.1,123.1c-10.5,4.5-21.7,12.1-24.4,23.9c-3.2,13.6,6.1,26.2,15.2,35.3c5,5,10.6,9.5,16.5,13.5
			c5.8,3.9,12.3,7.8,19.5,8.2c3.2,0.2,6.4-0.5,9.3-1.9c2.5-1.2,4.7-3,6.8-4.8c4.1-3.7,7.7-8,12.7-10.5c6.1-3,13.2-2.2,19.7-2.6
			c3.4-0.2,6.8-0.6,9.9-1.8c2.9-1,5.4-2.6,7.8-4.4c9.4-7.5,14.2-20,14.5-31.8c0.2-6-0.8-12-3.1-17.6c-2.4-5.8-6.1-10.8-11-14.7
			c-5.8-4.6-12.4-8-18.8-11.7c-6.9-4-13.8-8-20.7-12c-2.2-1.3-4.3-2.5-6.5-3.8c-0.2-0.3-0.5-0.5-0.8-0.6c-0.3-0.1-0.6-0.3-0.9-0.4
			c-0.6-0.4-1.3-0.7-1.9-1.1c-0.4-0.2-0.8-0.3-1.2-0.1c-5.4-2.1-11.3-3.7-16.9-1.9c-5.5,1.7-10.7,6.7-10.1,12.8
			c0.3,3.4,2.1,6.2,2.9,9.5c0.7,3-0.2,5.9-1.9,8.4C338,118.6,331,120.6,325.1,123.1L325.1,123.1z"/>
		<path class="st2" d="M519.2,163.6c-21-11.4-23.7-46-18.9-65.1c11-43.3,40.8-39.3,51.4-30.4s34.1,16.1,56.6,10.5
			c16-4,28.6,7.8,32.4,24.5c3.4,15.1-1,31.3-12.9,42.5C615.9,156.7,566.4,189.1,519.2,163.6z"/>
		<path class="st2" d="M324.3,287.4c-0.1-3.2-0.5-6.5-1.2-9.6c-1.5-6.4-4.3-12.5-8.4-17.7c-7.8-10.1-20.1-16.5-32.8-17.4
			c-7.4-0.5-14.7,1-21.9,2.6c-3.6,0.8-7.2,1.7-10.9,2.3c-3.8,0.7-7.6,1.1-11.4,1.3c-7.7,0.4-15.4,0.1-23.1-0.6
			c-7.8-0.7-15.6-1.8-23.4-2.3c-13.3-0.8-28.2,1-38,11.1c-8.3,8.6-9.7,20.9-8.1,32.3h179.2C324.3,288.9,324.3,288.1,324.3,287.4
			L324.3,287.4z"/>
		<path class="st2" d="M83.8,262.3c10.1-14.5,6.9-32.8,3-48.9c-1.8-7.5-3.9-14.9-7.1-21.9c-3.3-7.1-8-13.2-14.4-17.7
			c-6.2-4.4-13.4-7.2-19.5-11.8c-6.1-4.6-9.6-11.3-11.9-18.4c-2.4-7.2-3.6-14.7-6.2-21.9c-2.4-6.5-5.8-13-10.9-17.7
			C12,99.8,6.2,97.3,0,97.7V287c15.8-1.7,31.9-0.5,47.6-3.7C61.4,280.6,75.5,274.1,83.8,262.3L83.8,262.3z"/>
		<path class="st2" d="M0,40.3c0.2,0,0.4,0,0.5,0c13.6-0.7,27.3-3.2,40-8.1c12.3-4.8,23.7-11.7,32.8-21.3c3.2-3.4,6.1-7,8.7-10.9H0
			V40.3z"/>
	</g>
	<path class="st2" d="M464.5,62.3c-6.3-3.5-10.2-10.3-10-17.5c0.1-1.9-2.9-1.9-3,0c0,0.4,0,0.8,0,1.2c-0.5,0.1-1,0.4-1.2,1
		c-1,3.4-2.6,6.7-4.7,9.5c-1,1.4-2.2,2.8-3.5,4c-1.1,1-2.5,2.2-2.1,3.9c0.3,1.6,1.9,2.3,3.2,3.2c1.4,1,2.7,2.2,3.8,3.4
		c2.3,2.5,4.2,5.4,5.5,8.6c0.5,1.3,2.5,1.6,2.9,0c1.5-5.9,4.8-11.1,9.4-15C465.5,64.1,465.3,62.8,464.5,62.3L464.5,62.3z
		 M453.6,75.3c-0.9-1.7-2-3.3-3.3-4.9c-1-1.3-2.2-2.5-3.4-3.5c-0.6-0.6-1.3-1.1-2-1.6c-0.6-0.4-1.4-0.8-1.9-1.3c0,0,0,0,0,0
		c0-0.1,0-0.1,0.1-0.2c0.3-0.2,0.6-0.6,0.8-0.8c0.6-0.6,1.2-1.1,1.7-1.7c1.2-1.3,2.3-2.7,3.3-4.2c1.3-1.9,2.3-4,3.2-6.2
		c1.3,5.2,4.6,9.9,9.1,13C457.9,67.1,455.3,71,453.6,75.3L453.6,75.3z"/>
	<path class="st2" d="M81.6,52.7c-0.8-1-1.9-1.8-2.8-2.7c-1-1-1.9-2.1-2.7-3.3c-1.6-2.4-2.7-5-3.4-7.7c-0.1-0.2-0.1-0.4-0.2-0.5
		c0.1-0.2,0.1-0.3,0.2-0.5c0.5-1.9-2.4-2.7-2.9-0.8c-1.5,5.7-4.6,10.7-9,14.5c-0.6,0.5-0.6,1.6,0,2.1c4.8,4,8.4,9.3,10.4,15.2
		c0.4,1.2,2.1,1.5,2.7,0.4c1.8-2.9,3.6-5.8,5.3-8.7C80.5,58.4,83.4,55.3,81.6,52.7L81.6,52.7z M78.6,55.8c-0.8,1.3-1.6,2.6-2.4,3.9
		c-1.1,1.8-2.2,3.7-3.4,5.5c-2.1-4.8-5.1-9.1-8.9-12.6c2.9-2.8,5.2-6.1,6.9-9.8c1.5,3.8,3.8,7.2,6.7,10c0.4,0.4,0.9,0.8,1.3,1.2
		C79.4,54.7,79,55.1,78.6,55.8z"/>
	<path class="st2" d="M128.4,257.7c-4.4-3.3-7.6-8-9.3-13.2c0-0.2-0.1-0.4-0.2-0.6c-0.1-0.2-0.1-0.3-0.2-0.5
		c-0.5-1.9-3.4-1.1-2.9,0.8c0,0.1,0.1,0.2,0.1,0.4c-2.4,5.1-5.9,9.5-10.3,13c-0.8,0.6-0.4,1.9,0.3,2.4c5.5,3.9,9.4,9.7,11.1,16.2
		c0.3,1.2,2.1,1.5,2.7,0.4c3-5.6,6.1-11.1,9.1-16.7C129.4,259,129.1,258.2,128.4,257.7L128.4,257.7z M109.2,258.5
		c3.3-2.9,6.1-6.3,8.2-10.1c1.9,4.2,4.7,8,8.3,10.9c-2.3,4.2-4.6,8.3-6.8,12.5C117,266.7,113.6,262,109.2,258.5L109.2,258.5z"/>
	<path class="st2" d="M664.8,183.7c-4.5-2.2-8-6.1-9.4-11c-0.3-0.9-1-1.1-1.7-1c-0.5,0-0.9,0.3-1.1,0.8c-0.1,0.1-0.1,0.3-0.1,0.5
		c-0.9,5.4-3.5,10.2-7.6,13.8c-0.8,0.6-0.5,1.9,0.3,2.4c4.2,2.5,7.8,6,10.5,10.1c0.9,1.3,2.7,0.7,2.8-0.8c0.4-4.9,2.9-9.3,6.7-12.4
		C665.8,185.4,665.6,184.1,664.8,183.7L664.8,183.7z M656.1,194.8c-2.2-2.8-4.9-5.2-7.8-7.2c2.7-2.8,4.8-6.1,6-9.8
		c1.7,3,4.2,5.6,7.1,7.5C658.8,187.9,657,191.2,656.1,194.8L656.1,194.8z"/>
	<path class="st2" d="M385.1,248.1c-1-0.8-1.9-1.7-2.6-2.6c-1.6-1.9-2.7-4-3.5-6.4c0-0.1,0.1-0.2,0.1-0.4c0.3-1.2-1.3-1.7-1.8-0.8
		c-0.4,0.2-0.6,0.6-0.4,1.1c0,0,0,0.1,0,0.1c-1.3,4-4.2,7.3-8,9.2c-0.6,0.3-0.7,1.2-0.2,1.6c4.2,3.8,7.4,8.5,9.2,13.8
		c0.3,0.9,1.7,1,1.9,0c0.5-2.6,1.4-5.1,2.8-7.3c0.7-1.2,1.6-2.3,2.5-3.4c0.7-0.8,1.8-1.5,1.8-2.7C387,249.2,385.9,248.7,385.1,248.1
		L385.1,248.1z M383.6,251.9c-0.4,0.5-0.8,0.9-1.2,1.4c-0.7,0.9-1.4,1.9-1.9,2.9c-0.7,1.3-1.3,2.7-1.8,4.2
		c-1.8-4.1-4.4-7.8-7.6-10.9c3-1.8,5.4-4.4,6.9-7.5c0.5,1.2,1.2,2.4,2,3.5c0.7,0.9,1.4,1.8,2.2,2.6c0.4,0.4,0.8,0.8,1.3,1.2
		c0.2,0.1,1.4,0.9,1.4,1.1C384.9,250.8,383.8,251.6,383.6,251.9L383.6,251.9z"/>
	<path class="st2" d="M264.7,98.9c-4-2.2-6.9-5.9-7.9-10.4c0-0.1-0.1-0.3-0.2-0.4c0-0.1,0-0.1,0.1-0.2c0.3-1.2-1.6-1.8-1.9-0.5
		c-1.1,5-3.8,9.4-7.7,12.7c-0.4,0.3-0.4,1.1,0,1.4c3.7,3.2,6.6,7.2,8.3,11.7c0.3,0.8,1.8,1.1,1.9,0c0.8-5,3.4-9.5,7.4-12.6
		C265.2,100.2,265.4,99.3,264.7,98.9L264.7,98.9z M256,110c-1.7-3.4-4-6.5-6.8-9.1c2.8-2.6,5-5.8,6.4-9.4c1.4,3.5,3.8,6.4,6.9,8.5
		C259.4,102.7,257.2,106.1,256,110L256,110z"/>
	<path class="st2" d="M226.2,205.2c-6-3.9-11.4-8.7-16.2-14c0.1-0.1,0.2-0.3,0.3-0.4c0.8-1-1-2-1.7-1c-0.1,0.2-0.3,0.4-0.5,0.6
		c-0.2,0.1-0.3,0.3-0.4,0.5c-4.3,5.6-8.6,11.3-12.9,16.9c-0.4,0.6,0.2,1.6,0.9,1.5c10-0.7,20-1.5,30-2.2
		C226.7,207,227,205.7,226.2,205.2L226.2,205.2z M222.7,205.3c-8.3,0.6-16.6,1.2-24.9,1.8c3.6-4.8,7.3-9.5,10.9-14.3
		C212.9,197.5,217.6,201.6,222.7,205.3L222.7,205.3z"/>
	<path class="st2" d="M607.3,18.9c-8.3-0.2-16.6,0.6-24.7,2.5c-1.2,0.3-0.7,2.2,0.5,1.9c0.4-0.1,0.7-0.2,1-0.2
		c0,0.1,0.1,0.2,0.3,0.4c4.9,4.2,9.9,8.5,14.8,12.7c0.6,0.5,1.5,0.3,1.7-0.4c1.5-5.5,4-10.7,7.3-15.3
		C608.6,19.8,608,18.9,607.3,18.9L607.3,18.9z M599.4,33.7c-4.3-3.7-8.6-7.4-12.9-11.1c6.2-1.2,12.6-1.8,18.9-1.8
		C602.9,24.9,600.8,29.2,599.4,33.7z"/>
	<path class="st2" d="M484.4,209.3c-4.2-5.6-8.5-11.2-12.7-16.8c-0.1-0.1-0.2-0.2-0.4-0.3c0-0.8-1-1.5-1.7-0.8
		c-4.8,5.2-8.8,11.3-11.5,17.8c-0.3,0.7,0,1.5,0.9,1.5c8.2,0,16.4,0,24.6,0C484.2,210.8,484.9,209.9,484.4,209.3L484.4,209.3z
		 M470.1,193.8c3.8,5,7.6,10,11.3,15c-7,0-14,0-21.1,0C462.9,203.3,466.2,198.2,470.1,193.8L470.1,193.8z"/>
</g>
<g id="OBJECTS">
	<g>
		<path class="st3" d="M736.4,156.5c-1-0.7-1.9-1.6-2.7-2.6c-0.8-1-1.3-2.1-1.9-3.2c-0.3-0.6-1.2-0.4-1.4,0.1
			c-0.1,0.1-0.1,0.2-0.1,0.3c0,1.3,0,2.4-0.5,3.6c-0.4,1.1-1.2,2.2-2.1,2.9c-0.4,0.3-0.5,1,0,1.3c2.1,1.3,3.5,3.4,4,5.7
			c0.2,1,1.5,0.6,1.6-0.2c0.3-2.6,1.5-5,3.3-6.8C736.9,157.4,736.8,156.8,736.4,156.5L736.4,156.5z M732.3,161.7
			c-0.7-1.4-1.8-2.5-3-3.5c0.8-0.8,1.4-1.8,1.8-2.9c0.2-0.6,0.3-1.2,0.4-1.8c0.3,0.5,0.7,1,1.1,1.5c0.7,0.9,1.5,1.6,2.4,2.3
			C733.7,158.6,732.9,160.1,732.3,161.7z"/>
		<path class="st3" d="M530.1,247c-1.7-1-2.9-2.6-3.3-4.6c-0.1-0.2-0.2-0.4-0.4-0.4c0-0.2-0.1-0.4-0.2-0.6c-0.1-0.2-0.5-0.2-0.5,0.1
			c0,0.2,0,0.5,0,0.7c-0.1,0.1-0.1,0.2-0.1,0.4c0,0.1,0,0.1,0,0.2c-0.1,0.7-0.2,1.4-0.4,2.1c-0.4,1.1-1.1,2-2,2.8
			c-0.2,0.2-0.3,0.6-0.1,0.8c1.5,1.5,2.7,3.4,3.5,5.4c0.2,0.6,1,0.3,1.1-0.2c0.3-2.2,1.1-4.2,2.5-5.8
			C530.4,247.6,530.3,247.1,530.1,247L530.1,247z M526.8,251.6c-0.7-1.3-1.5-2.5-2.6-3.6c0.9-0.9,1.7-2.1,2-3.5
			c0.6,1.2,1.5,2.2,2.6,3C528,248.8,527.3,250.2,526.8,251.6z"/>
		<g>
			<path class="st4" d="M692.4,218.8C692.4,218.8,692.4,218.8,692.4,218.8L692.4,218.8C692.4,218.8,692.4,218.8,692.4,218.8z"/>
			<path class="st4" d="M743.6,259.2c-1.2,0.4-2.5,0-3.7-0.3c-1.3-0.4-2.6-0.7-3.9-0.5c-1.4,0.2-2.6,0.8-4,1.2
				c-0.7,0.2-1.6,0.4-2.4,0.3c-1-1-1.8-2.1-2.4-3.4c-1-2-1.6-4.2-2.3-6.2c-0.8-2-1.6-4-2.8-5.8c-1.1-1.7-2.4-3.2-3.9-4.5
				c1.1,0.1,2.1,0.1,3.2-0.1c1.4-0.2,2.8-0.7,4.2-1c0.3,0.6,0.8,1.1,1.2,1.5c0.6,0.5,1.2,1,1.9,1.4c1.3,0.8,2.9,1.3,4.4,1.6
				c3.3,0.4,6.6-0.6,9.1-2.7c0.5-0.4-0.1-1.2-0.6-1.1c-2.1,0.4-3.6-1.7-5-2.9c-1.1-1-2.5-1.7-4-1.9c-1.4-0.2-2.9,0-4.2,0.6
				c-1.1,0.5-2,1.3-2.8,2.2c-1.8,0.4-3.6,1.1-5.4,1.3c-2,0.2-3.9-0.2-5.7-1.1c-0.2-0.1-0.3-0.2-0.5-0.3c3.6-5.2,6.1-11.3,7.5-17.6
				c0.5-2.1,0.9-4.3,1.1-6.5c1.3-0.5,2.4-0.9,2.9-0.9c0.3-0.1,0.7-0.1,1-0.1c1.2,2.6,4,4.3,6.8,4.6c3.1,0.3,6.1-1.3,8-3.7
				c0.3-0.4-0.1-1.1-0.6-1c-3.2,0.1-5.6-2.7-8.5-3.3c-1.8-0.4-4.6,0.2-5.3,2.2c-0.3,0-0.6,0-0.9,0.1c-1.1,0.1-2.1,0.4-3.1,0.7
				c0,0,0-0.1,0-0.1c0-0.3-0.1-0.5-0.3-0.6c0.1-1.4,0.2-2.8,0.2-4.2c0-1.2,0-2.5-0.1-3.7c1.2-1.7,2.3-3.5,3.9-4.8
				c0.8-0.6,1.6-1,2.5-1.4c0.6,1,1.9,1.8,2.9,2.2c1.5,0.6,3.2,0.6,4.7,0.1c3.5-1.1,5.6-4.6,6.7-7.9c0.2-0.7-0.7-1.1-1.2-0.7
				c-1.1,0.9-2.6,0.8-3.9,0.7c-1.6-0.2-3.1-0.6-4.7-0.2c-2.1,0.5-3.7,2-4.4,4c-0.3,0.1-0.5,0.3-0.5,0.6c-0.9,0.4-1.9,0.9-2.6,1.5
				c-1.4,1.1-2.3,2.6-3.2,4.2c0.1-0.6,0.2-1.2,0.4-1.8c0.7-3.4,1.6-6.8,3.5-9.8c0.9-1.4,1.8-2.7,3-4c0,0,0,0,0.1-0.1
				c0.1-0.1,0.2-0.3,0.3-0.4c0.1-0.1,0.2-0.2,0.3-0.3c5.5,0.5,10.8-2.9,12.6-8.2c0.2-0.6-0.6-1-1.1-0.6c-1.2,1.2-3,0.9-4.5,0.9
				c-1.6,0-3,0.2-4.4,1c-2.1,1.2-3.6,3.4-3.9,5.8c-1,1-2,2-2.8,3.1c-0.3,0.4-0.6,0.9-0.9,1.3c0.3-1.6,0.5-3.1,0.3-4.8
				c0,0,0-0.1,0-0.1c0.1,0,0.1,0,0.2-0.1c1.3-2.5,0.9-5.5-0.8-7.7c-0.9-1.2-2.1-1.9-3.6-2.5c-1.6-0.6-3.3-0.9-4.7-1.9
				c-0.3-0.2-0.9,0.1-0.9,0.5c0.2,1.3,0.3,2.5,0.8,3.7c0.4,1.2,1,2.3,1.8,3.4c1.4,2,3.4,3.9,5.8,4.7c0.1,0,0.2,0,0.3,0
				c0,0.1,0,0.1,0,0.2c0.3,2.3,0.2,4.8-0.5,7c0,0,0,0,0,0c-0.6,1.3-1.1,2.6-1.5,3.9c-0.9-5.4-3.5-10.4-6.8-14.9
				c1.2-0.8,0.9-3.1-0.9-3.1c-0.5,0-0.9,0.2-1.1,0.4c-1.1-1.4-2.3-2.7-3.5-3.9c-1.3-1.3-2.6-2.6-4-3.8c0.6-1,0.2-2.6-1.3-2.6
				c-0.5,0-1,0.2-1.2,0.5c-3.8-2.9-8-5.4-12.4-7.4c0.1,0,0.1-0.1,0.2-0.2c0.2-0.2,0.3-0.3,0.3-0.5c0.1-0.2,0.2-0.4,0.1-0.6
				c0-0.1,0-0.3-0.1-0.4c-0.1-0.3-0.2-0.5-0.4-0.7c-0.1-0.1-0.2-0.2-0.3-0.3c-0.3-0.1-0.5-0.2-0.8-0.2h-0.2c-0.2,0-0.4,0-0.6,0.1
				c-0.2,0.1-0.4,0.2-0.5,0.3c-0.2,0.2-0.3,0.3-0.3,0.5c-0.1,0.2-0.2,0.4-0.1,0.6c0,0,0,0.1,0,0.1c-2.2-0.9-4.5-1.6-6.8-2.2
				c-1.2-0.3-2.4-0.6-3.6-0.7c-0.6-0.1-1.2-0.2-1.8-0.2c0-0.1-0.1-0.2-0.1-0.3c-0.1-0.2-0.2-0.4-0.3-0.5c-0.2-0.2-0.3-0.3-0.5-0.3
				c-0.2-0.1-0.4-0.2-0.6-0.1c-0.1,0-0.3,0-0.4,0.1c-0.3,0.1-0.5,0.2-0.7,0.4c-0.1,0.1-0.2,0.2-0.3,0.3c-0.1,0.3-0.2,0.5-0.2,0.8
				v0.2c0,0.2,0,0.4,0.1,0.6c0.1,0.2,0.2,0.4,0.3,0.5c0.2,0.2,0.3,0.3,0.5,0.3c0.2,0.1,0.4,0.2,0.6,0.1c0.1,0,0.3,0,0.4-0.1
				c0.3-0.1,0.5-0.2,0.7-0.4c0.1-0.1,0.1-0.2,0.2-0.3c0.5,0.3,1.1,0.6,1.6,1c0.8,0.5,1.5,1,2.2,1.5c1.5,1.1,2.8,2.3,4.2,3.5
				c1.8,1.6,3.6,3.2,5.3,4.8c0,0-0.1,0-0.1,0c-0.3,0.1-0.5,0.2-0.7,0.4l-0.2,0.2c-0.2,0.2-0.3,0.3-0.3,0.5c-0.1,0.2-0.2,0.4-0.1,0.6
				c0,0.2,0,0.4,0.1,0.6c0.1,0.2,0.2,0.4,0.3,0.5l0.3,0.3c0.3,0.1,0.5,0.2,0.8,0.2c0.1,0,0.3,0,0.4-0.1c0.3-0.1,0.5-0.2,0.7-0.4
				l0.2-0.2c0.2-0.2,0.3-0.3,0.3-0.5c0.1-0.1,0.1-0.2,0.1-0.3c0.2,0.2,0.4,0.4,0.6,0.6c4.8,5.2,8.8,11.3,10.2,18.3
				c0.7,3.4,0.7,6.8-0.1,10.2c-1.2-1.2-2.9-1.8-4.7-1.6c0,0,0,0,0,0c0.1-0.9,0.1-1.8-0.1-2.7c0.1-0.1,0.1-0.2,0.1-0.3
				c0.5-2.6,0-5.4-1.7-7.5c-1.6-2-3.9-3.3-6.4-3.6c-0.6-0.1-0.7,0.8-0.3,1.1c1.1,0.7,1.3,2.1,1.3,3.3c0.1,1.4,0.1,2.7,0.7,4
				c0.9,1.8,3,3.3,5.1,3.1c0.2,0.9,0.2,1.8,0.3,2.8c-1.5,0.4-2.8,1.2-3.7,2.5c-1.2,1.7-1.4,4-1.5,6c0,0.1,0,0.2,0,0.2
				c-0.6-1.2-1.2-2.3-2.1-3.3c-1.2-1.3-2.6-2.4-4.2-3c-1.8-0.7-3.9-0.8-5.4,0.5c-1.5,1.3-1.8,3.3-1.7,5.2c-0.9-0.2-1.9-0.2-2.8,0
				c-1.2,0.3-2.1,1.1-2.8,2.1c-1.3,1.7-1.6,4.1-1.1,6.2c0.8,3.6,3.7,5.9,7,7c-2.2,0.8-4.1,2.5-5.8,4.3c-1.9,0.3-4,0-5.7-0.9
				c0.1-0.6,0.3-1.2,0.5-1.7c0.2-0.6,0.3-1.2,0.2-1.8c-0.2-1.3-1-2.3-2-3.1c-2.2-1.7-5.1-1.9-7.2-3.7c-0.3-0.2-0.8-0.3-0.9,0.1
				c-1.2,2.9-1,6.5,1.2,8.9c1.6,1.8,4.5,2.7,6.9,1.9c0.1,0.1,0.2,0.1,0.4,0.2c1.8,0.9,3.8,1.3,5.8,1.1c-0.2,0.2-0.3,0.3-0.5,0.5
				c-2.9,3.1-6.8,6.2-11.3,5.4c-0.4-0.1-0.8-0.2-1.2-0.3c-0.2-1.2,0.1-2.4,0.1-3.6c-0.1-1.4-0.7-2.6-1.9-3.4c-1.2-0.8-2.6-1-3.9-1.1
				c-0.8-0.1-1.6-0.2-2.3-0.3c-0.8-0.2-1.4-0.5-2.1-0.9c-0.5-0.3-1.1,0.3-0.8,0.8c0.8,1.6,0.7,3.4,1.1,5.2c0.3,1.4,1,2.6,2.2,3.5
				c1.8,1.4,4.5,1.8,6.6,0.7c0.1,0,0.1,0.1,0.2,0.1c0.2,0.1,0.5,0.2,0.7,0.2c0.1,0.1,0.2,0.1,0.3,0.1c1.7,0.4,3.5,0.4,5.2-0.1
				c1.2-0.4,2.4-0.9,3.4-1.6c-0.9,1.3-1.7,2.6-2.2,4.1c-0.2,0.7-0.4,1.3-0.6,2.1c-1.7,0.2-2.9,1.9-3.4,3.6c-3.3-0.6-6.6-1.1-9.8-1.9
				c-3.9-1-7.7-2.5-11.2-4.3c-3.7-1.9-7.1-4.2-10.2-7c0.1-0.1,0.2-0.1,0.3-0.2c0.1-0.1,0.1-0.2,0.2-0.3c0.1-0.2,0.2-0.5,0.2-0.7
				v-0.3c0-0.2,0-0.4-0.1-0.6c-0.1-0.2-0.2-0.3-0.3-0.5c-0.1-0.1-0.3-0.2-0.5-0.3c-0.2-0.1-0.4-0.1-0.6-0.1c-0.1,0-0.3,0-0.4,0.1
				c-0.2,0.1-0.4,0.2-0.6,0.4c-0.1,0.1-0.1,0.2-0.2,0.3c0,0.1-0.1,0.2-0.1,0.2c-1.7-1.7-3.2-3.5-4.6-5.4c-2.4-3.3-4.3-6.9-5.6-10.8
				c-0.3-0.9-1.5-0.7-1.6,0.2c-0.7,9.1,3.3,17.9,7.9,25.5c1.2,2.1,2.6,4.1,4,6.1c-1.2,0.6-1,2.7,0.6,2.7c0.5,0,0.9-0.2,1.1-0.5
				c1.1,1.4,2.3,2.7,3.5,3.9c-0.4-0.1-0.8,0-1.2,0.1c-1,0.3-1.4,1.4-1,2.4c0.1,0.2,0.2,0.4,0.4,0.6c-4.7,1.3-5.6,7.1-7.7,10.8
				c-2.3,4-6.4,7.3-11.3,6.3c-2.7-0.5-5.1-2-7.4-3.5c0,0,0-0.1,0-0.1c0.6-0.9,0.9-2,1-3.1c0.2-1.7,0.4-3.4-0.1-5.1
				c-0.8-3-3.3-5.1-5.6-7c-0.4-0.3-1,0.1-0.7,0.6c0.5,1.2,0.5,2.5-0.1,3.6c0.4-2.4-0.4-4.8-2.1-6.6c-1.8-1.9-4.4-3.3-5.4-5.8
				c-0.2-0.6-1.1-0.3-0.9,0.3c0.6,1.5,0.4,3.1-0.5,4.4c0-2.2-0.7-4.3-2.1-6.1c-0.9-1.1-1.9-2-3.2-2.6c-1.5-0.7-3.2-0.9-4.9-1.2
				c-1.7-0.3-3.6-1-4.3-2.7c-0.2-0.4-1-0.5-0.9,0.1c0,0,0,0.1,0,0.1l0,0c0,0,0,0,0,0c0.6,5,3.3,9.6,7.2,12.7c-1.3,0.1-2.5,0-3.7-0.4
				c-0.4-0.1-0.7,0.3-0.6,0.6c0.7,2.9,2.8,5.1,5.3,6.6c2.3,1.3,4.9,1.9,7.4,2.4c-1,0.1-1.9,0.2-2.9,0.2c-0.4,0-0.6,0.4-0.4,0.7
				c1.7,3.1,5.6,3,8.5,4c0.9,0.3,1.7,0.7,2.4,1.4c0.7,0.6,1.2,1.3,1.9,1.9c1,1,2.3,1.9,3.7,1.9c0.1,0.1,0.2,0.1,0.4,0
				c4.1,2.7,8.9,5.4,13.9,3.2c2-0.9,3.8-2.4,5.1-4.2c1.5-2,2.4-4.2,3.3-6.5c1.1-2.6,2.7-5.4,5.7-6c0,0,0,0,0.1,0
				c0.3,0.2,0.7,0.4,1,0.5c0.9,0.3,2.1,0.4,2.6-0.6c0.2-0.3,0.2-0.7,0.1-1c1.7,1.5,3.5,2.8,5.4,4.1c3.1,2,6.5,3.7,10.1,4.7
				c0.1,0.2,0.4,0.2,0.6,0.1c0.5,0.1,0.9,0.2,1.4,0.3c0.1,0.1,0.2,0.2,0.3,0.2c0.4,0.1,0.8,0.1,1.2,0.2c-0.2,0.3-0.2,0.7,0,0.9
				c2.2,2.3,5.4,3.8,8.6,3.7c0.6,0,1.3-0.1,1.9-0.2c-0.2,0.1-0.3,0.3-0.5,0.4c-1.6,1.3-3.2,2.7-4.9,4c-1.1,0.9-2.3,1.7-3.5,2.5
				c-2.6-0.1-4.9-1.8-6.9-3.5c-0.4-0.4-0.8-0.7-1.2-1.1c0.2-0.9-0.1-1.8-0.5-2.5c-0.6-1.1-1.6-1.8-2.7-2.3c-1.2-0.5-2.5-0.8-3.8-1
				c-0.7-0.1-1.4-0.3-2-0.5c-0.7-0.2-1.3-0.5-1.9-0.7c-0.6-0.2-1.1,0.5-0.8,1c0.4,0.6,0.6,1.2,0.9,1.8c0.3,0.6,0.7,1.2,1,1.7
				c0.7,1.1,1.6,2,2.6,2.8c1.6,1.1,4.4,1.8,6.2,0.6c0.8,0.6,1.6,1.2,2.4,1.8c1.7,1.3,3.8,2.4,6,2.5c-2,1.2-4.2,2.2-6.5,2.7
				c-0.8,0.2-1.6,0.3-2.3,0.3c-0.6-0.7-0.9-1.8-1.3-2.6c-0.5-1.1-1.2-2.1-2.2-2.8c-0.9-0.7-2.1-1.1-3.1-1.3
				c-1.2-0.3-2.4-0.4-3.6-0.5c-0.5-0.1-0.7,0.5-0.5,0.9c0.7,1.3,0.6,2.9,0.9,4.3c0.3,1.3,1,2.5,2.1,3.3c1.9,1.5,4.7,1.5,6.6,0.1
				c0.4,0.1,0.8,0.1,1.1,0.1c2.4,0,4.7-0.8,6.8-1.8c3.4-1.6,6.3-4,9.1-6.5c-0.4,0.6-0.7,1.2-1,1.8c-0.5,1.1-0.9,2.1-1.2,3.3
				c-0.8-0.1-1.7,0.1-2.3,0.6c-0.9,0.7-1.4,1.8-1.5,3c-0.1,1.4,0.4,2.7,0.7,4c0.3,1.2,0.5,2.5-0.4,3.4c-0.3,0.4-0.1,1.1,0.4,1.1
				c3.3-0.3,5.4-3.1,6.3-6.1c0.6-2.1,0.7-5.7-1.7-6.8c0.2-0.7,0.4-1.4,0.7-2.1c0.5-1,1-2.1,1.6-3c0.4-0.7,0.9-1.4,1.4-2
				c0.5-0.5,1-0.9,1.5-1.4c0.9-0.4,1.8-1,2.4-1.7c0.2,0.4,0.5,0.8,0.8,1.1c0.6,0.6,1.4,0.8,2.2,1c0.8,0.2,1.6,0.3,2,1
				c0.4,0.7,0.5,1.5,0.6,2.3c0.1,0.8,0.3,1.6,0.7,2.4c0.8,1.5,2.4,2.6,4.1,2.8c1.8,0.2,3.5-0.5,4.8-1.6c1.3-1,2.2-2.4,3-3.9
				c0,0.2,0,0.5,0,0.7c0,0.9,0,1.9,0.1,2.9c0.2,1.7,1.3,3,2.9,3.7c1.5,0.6,3.3,0.2,4.5-0.9c0.6-0.6,0.9-1.3,1.3-2
				c0.1-0.1,0.1-0.2,0.2-0.3c0.5-0.1,1-0.2,1.4-0.4c0.1,0,0.1,0,0.2,0c0.8,0.1,1.6,0.2,2.4,0c0.7-0.2,1.3-0.5,1.8-1
				c2.4-2.3,1.9-6.1,0.3-8.7c-1-1.7-2.4-3-4-4c-0.5-0.3-0.9-0.5-1.4-0.8c2.1-0.4,4.1-1.3,5.8-2.4c2.9-1.9,5.9-5.1,4.3-8.7
				c2.3-1.9,4.4-4.1,6.2-6.5c0.6,0.4,1.2,0.7,1.9,0.9c2.2,1.6,3.1,4.9,3.3,7.4c0.2,2.2,0,4.5-0.7,6.6c-1.7,1.5-4.4,0.9-6.2,2.2
				c-1.3,1-1.4,2.5-1.4,4c0,1.8-0.7,3.5-2.2,4.6c-0.4,0.3-0.3,1,0.3,1.1c1.8,0.1,3.5,1,5.4,0.8c1.5-0.2,2.9-0.9,4-2
				c2.5-2.5,2.8-6.4,1.6-9.6c0-0.1-0.1-0.2-0.2-0.3c0.2-0.7,0.4-1.3,0.5-2c0.7-3.5,0.3-7.1-1.3-10.3c-0.2-0.3-0.4-0.7-0.6-1
				c2.9,2.9,4.6,6.8,5.9,10.7c1.1,3.2,2,6.8,4.3,9.3c0.3,1.5,1,3.2,2.2,4.3c1.5,1.3,3.5,1.3,5.3,1c3.5-0.6,6.7-2.7,8.7-5.6
				C744.7,259.7,744.1,259,743.6,259.2L743.6,259.2z M733.5,235.9c2.6,0.8,4.1,3.8,6.5,4.6c-2,1.1-4.4,1.6-6.7,1.3
				c-1.3-0.2-2.6-0.7-3.8-1.4c-0.6-0.4-1.1-0.8-1.6-1.2c-0.2-0.2-0.5-0.5-0.7-0.7c0.9-0.2,1.8-0.2,2.6-0.2c0.5,0,1,0.1,1.5,0.2
				c0.5,0.1,0.9,0.3,1.4,0.4c0.5,0.1,0.9-0.5,0.5-0.9c-0.7-0.7-1.8-1-2.8-1.1c-1.1-0.1-2.1-0.1-3.2,0.1c-0.2,0-0.4,0.1-0.6,0.1
				C728.5,235.7,731.3,235.2,733.5,235.9L733.5,235.9z M729.8,209.7c1.2-0.3,2.5,0,3.6,0.6c2,1,3.8,2.5,6,2.9
				c-1.6,1.5-3.7,2.3-5.8,2.1c-1.2-0.1-2.3-0.5-3.3-1.2c-0.8-0.5-1.4-1.1-1.9-1.8c0.6,0.1,1.1,0.3,1.7,0.4c0.5,0,0.8-0.7,0.4-1
				c-0.6-0.5-1.4-0.6-2.1-0.7c-0.2,0-0.3,0-0.5,0C728.5,210.3,729.1,209.9,729.8,209.7L729.8,209.7z M735.3,192
				c2.1,0.1,4.3,0.9,6.3,0.4c-1,2.2-2.7,4.2-5,5c-1.2,0.4-2.5,0.4-3.7,0c-0.6-0.2-1.1-0.5-1.6-0.8c-0.1-0.1-0.2-0.2-0.3-0.3
				c1.3-0.3,2.6-0.4,3.9-0.7c0.7-0.2,0.6-1.3-0.2-1.3c-1.5,0.1-3.1,0.4-4.6,0.8c0,0,0,0-0.1,0l0,0C731,193.2,733.2,191.9,735.3,192
				L735.3,192z M734.5,178.5c2.1-0.8,4.6,0,6.7-0.6c-1.8,3.2-5.4,5.3-9.1,5.4c0.1-0.1,0.1-0.1,0.2-0.2c0.7-0.6,1.5-1.1,2.3-1.8
				c0.4-0.4,0-1.2-0.6-1c-1.3,0.5-2.5,1.4-3.6,2.3C731.1,180.8,732.6,179.2,734.5,178.5L734.5,178.5z M723.2,176.4
				c-0.4-0.5-1.1,0.1-0.8,0.7c0.5,1.1,1.1,2.1,1.5,3.2c0.2,0.7,0.4,1.3,0.6,2c-2-1-3.7-2.3-5-4.1c-1.1-1.6-1.9-3.5-2.2-5.4
				c2.2,1.2,4.9,1.2,6.8,3.1c1.6,1.7,2.3,4.4,1.7,6.7C725.4,180.3,724.6,178,723.2,176.4L723.2,176.4z M696,191.6
				c-0.4-0.7-0.8-1.4-1.5-1.7c-0.3-0.1-0.7,0.1-0.6,0.4c0.2,0.6,0.7,1.2,1,1.8c0.3,0.5,0.6,1.1,0.8,1.7c-1.9-0.5-3.7-1.7-4.3-3.7
				c-0.3-1.3-0.1-2.7-0.4-4c-0.1-0.5-0.2-0.9-0.4-1.4C693.7,185.6,695.8,188.4,696,191.6C696,191.6,696,191.6,696,191.6L696,191.6z
				 M665.7,223c-0.1,0-0.2,0-0.3,0.1c-0.1,0.1-0.2,0.1-0.4,0.2c-0.6-0.5-1.2-1-1.7-1.6c-0.4-0.4-0.7-0.9-1-1.4
				c-0.3-0.5-0.4-1-0.8-1.5c-0.3-0.5-1.3-0.4-1.2,0.3c0.2,1.2,1,2.4,1.8,3.3c0.4,0.4,0.8,0.8,1.2,1.2c-1.7,0.1-3.4-0.5-4.6-1.8
				c-1.7-1.8-2-4.5-1.2-6.8c1.8,1.4,4.3,1.7,6.2,2.9c1,0.6,1.9,1.5,2.2,2.7C666.1,221.5,665.8,222.3,665.7,223L665.7,223z M657,231
				c0,0-0.1,0-0.1,0.1c-1.2-0.6-2.2-1.6-3-2.8c-0.3-0.5-1.1-0.2-0.9,0.4c0.4,1.3,1.3,2.3,2.5,3c-1.6,0.4-3.4,0-4.7-1.1
				c-1-0.9-1.4-2.2-1.7-3.5c-0.2-1-0.3-2-0.5-2.9c0.9,0.3,1.8,0.4,2.7,0.5c1.4,0.1,2.8,0.2,4,0.8c1.4,0.7,1.8,1.9,1.9,3.3
				c0,0.7,0,1.4,0.1,2.1C657.2,230.9,657.1,230.9,657,231L657,231z M603.7,254.5c-0.1,1.8-0.7,3.5-1.7,5c-0.1-0.2-0.3-0.3-0.4-0.4
				c0,0,0.1,0,0.1-0.1c0.8-1.7,1.5-3.5,1.2-5.4c0-0.2-0.1-0.4-0.1-0.6C603.1,253.5,603.4,253.9,603.7,254.5z M595.3,246.4
				c1,0.9,1.9,2,2.3,3.3c0.5,1.5,0.4,3.1-0.1,4.5c-0.1,0.4,0.2,0.6,0.5,0.6c0.2,0.2,0.5,0.2,0.7,0c1.2-1.1,1.7-2.6,1.6-4.2
				c0.2,0.1,0.4,0.2,0.6,0.4c0.2,0.1,0.3,0.3,0.5,0.4c0.6,0.6,1,1.4,1.1,2.2c0.3,1.7-0.5,3.5-1.2,5c0,0,0,0,0,0
				c-0.6-0.5-1.3-0.8-1.9-1.2c-1.3-0.8-2-2.1-2.8-3.3c-0.3-0.4-0.6-0.9-0.9-1.2c0,0,0,0,0,0c0.1-1-0.1-1.9-0.5-2.8
				c-0.4-0.9-0.8-1.8-1.2-2.7c-0.6-1.2-1.1-2.5-1.7-3.7C593.2,244.7,594.3,245.5,595.3,246.4L595.3,246.4z M588.8,246.5
				c-0.1,0.5,0.4,0.8,0.8,0.5c1.1-0.9,1.8-2.2,2-3.6c0.6,1.4,1.2,2.7,1.8,4.1c0.4,0.9,0.8,1.8,1.2,2.7c0.3,0.8,0.5,1.5,0.5,2.4
				c-0.5-0.4-1-0.8-1.6-1c-1.3-0.6-2.7-1-3.9-1.7c-0.6-0.3-1.2-0.8-1.6-1.3c0.1-0.1,0.1-0.2,0-0.3c-1-1.7-1-3.7-1.1-5.5
				c-0.1-1.4-0.4-2.8-1.1-4.1C588.1,240.5,589.3,243.6,588.8,246.5L588.8,246.5z M584.5,237.7c0.1,0.1,0.3,0.2,0.4,0.2
				c0.4,0.7,0.8,1.5,1.1,2.2c0.3,0.9,0.4,1.9,0.5,2.9c0.1,1.3,0.1,2.6,0.5,3.8c-0.7-1.6-1.2-3.3-1.8-4.9c-0.3-1-0.7-2-1.1-2.9
				c-0.4-0.8-0.8-1.5-1.4-2.1C583.3,237.1,583.9,237.3,584.5,237.7L584.5,237.7z M581.9,236.8c0,0.1,0,0.1,0.1,0.2
				c0.8,0.6,1.3,1.5,1.7,2.4c0.4,1,0.8,2,1.1,3c0.2,0.7,0.5,1.4,0.7,2.1c0,0,0,0,0-0.1c-0.8-1.5-1.5-2.9-2.7-4.1
				c-1.7-1.7-4.1-2.8-5.7-4.7C578.5,236.3,580.3,236.4,581.9,236.8L581.9,236.8z M579.1,241.7c-1.6-2-2.7-4.4-3.3-6.9
				c0.1,0.1,0.2,0.1,0.3,0.2c1.3,2.1,3.6,3.3,5.5,4.8c1,0.8,1.9,1.8,2.6,3c0.1,0.1,0.2,0.3,0.3,0.5c-0.3-0.2-0.5-0.4-0.8-0.5
				C582.2,242.1,580.6,241.9,579.1,241.7C579.1,241.7,579.1,241.7,579.1,241.7L579.1,241.7z M581.1,250.1c-1.1-1-2-2.2-2.6-3.8
				c1.5,0.4,3,0.4,4.4,0c0.4-0.1,0.4-0.7,0.1-0.9c-1.3-0.9-2.5-2-3.6-3.3c2,0.3,4.3,0.7,5.5,2.4c0.3,0.6,0.6,1.1,0.9,1.7
				c0.3,0.6,0.7,1.1,1.1,1.7c0,0.1,0.1,0.2,0.1,0.2c0,0.1,0.1,0.1,0.2,0.1c0.3,0.4,0.6,0.7,0.9,1c0.5,0.4,1,0.7,1.5,1
				c-1.4,0-2.8,0.2-4.2,0.5c-0.9,0.2-1.8,0.4-2.6,0.1C582.2,250.8,581.6,250.5,581.1,250.1L581.1,250.1z M584.8,252.3
				c-0.6-0.2-1.1-0.5-1.7-0.8c0.7,0.1,1.4,0,2-0.1c0.9-0.2,1.8-0.4,2.7-0.5c0.9-0.1,1.9-0.1,2.8,0c0.1,0,0.1,0,0.1,0
				c0.3,0.1,0.6,0.2,0.9,0.3c0.1,0.1,0.3,0.1,0.4,0.2c-0.7-0.1-1.3-0.1-2,0c-1,0.1-1.9,0.4-2.8,0.7
				C586.5,252.3,585.6,252.5,584.8,252.3L584.8,252.3z M592.9,255.1c0.4-0.1,0.5-0.9,0-0.9c-2.1-0.3-4.4-0.7-6.6-1.4
				c1.2-0.2,2.4-0.8,3.6-1c1.7-0.3,3.5,0.1,5,1c0.2,0.1,0.3,0.3,0.5,0.5c0.9,1,1.5,2.4,2.4,3.4c0.2,0.2,0.4,0.4,0.6,0.6
				c-1.6-0.4-3.2-0.2-4.9-0.2c-1,0-2,0-2.9-0.3c-0.8-0.2-1.6-0.6-2.2-1.1C589.9,255.7,591.4,255.5,592.9,255.1L592.9,255.1z
				 M599.4,261.4c-1.1-1.2-2.2-2.1-3.7-2.7c-1.7-0.6-4-0.8-5.8-1.6c0.1,0,0.1,0,0.2,0.1c1,0.3,2,0.4,3,0.4c2,0,4.1-0.3,6,0.5
				c0.1,0,0.2,0,0.2,0c0.8,0.5,1.7,1,2.4,1.8c1,1.1,1.5,2.5,1.6,4C601.7,263.8,600.4,262.5,599.4,261.4L599.4,261.4z M602.6,260.3
				c-0.1-0.1-0.2-0.3-0.3-0.4c1-1.3,1.6-2.9,1.8-4.6c0.1,0.2,0.1,0.3,0.2,0.5c0.5,1.5,0.3,3.1,0.2,4.6c-0.1,1-0.3,2-0.8,2.9
				C603.5,262.3,603.2,261.2,602.6,260.3L602.6,260.3z M647.1,265.8c-0.4-0.3-0.7-0.6-1.1-0.8c-1.1-0.8-2.4-1.5-3.8-1.6
				c-0.6,0-0.8,0.8-0.3,1.1c0.7,0.3,1.3,0.6,2,0.9c0.6,0.3,1.1,0.6,1.6,1c-0.5,0.2-1,0.3-1.6,0.2c-1-0.1-2-0.5-2.8-1.1
				c-0.9-0.7-1.6-1.5-2.2-2.5c-0.3-0.5-0.6-1-0.9-1.5c0.6,0.2,1.2,0.3,1.7,0.4c1.2,0.2,2.3,0.4,3.5,0.7c1.1,0.3,2.1,0.8,2.9,1.6
				C646.6,264.6,646.9,265.2,647.1,265.8C647.1,265.8,647.1,265.8,647.1,265.8L647.1,265.8z M645.2,274.5c-0.2,0-0.3-0.1-0.5-0.1
				c-1.1-0.3-1.9-1-2.5-2c-0.4-0.5-1.3-0.2-1.1,0.5c0.3,1.3,1.3,2.1,2.4,2.7c-1.5,0.5-3.3,0.2-4.5-1c-1.6-1.6-1.3-3.8-1.9-5.8
				c0.9,0.1,1.7,0.3,2.5,0.5c1.1,0.3,2.1,0.7,3,1.4c1,0.8,1.5,2,2.1,3.1C644.9,274,645.1,274.3,645.2,274.5
				C645.2,274.5,645.2,274.5,645.2,274.5L645.2,274.5z M662.2,275.6c0.2,1,0,2.1-0.2,3.1c-0.5,1.9-1.6,4.1-3.5,4.8
				c0.5-1.6-0.3-3.5-0.8-5c-0.4-1.2-0.5-2.5,0.1-3.6c0.4-0.8,1.3-1.4,2.2-1.5c-0.3,1.1-0.6,2.4-0.2,3.4c0.2,0.5,0.8,0.5,1,0
				c0.2-0.5,0.2-1.1,0.3-1.7c0-0.5,0.1-1.1,0.2-1.6C661.7,274.2,662.1,274.8,662.2,275.6L662.2,275.6z M721.5,212.2
				c-1.4,0.6-2.7,1.3-4,1.9c1.3-1.3,2.3-2.8,3.1-4.5c0.5-1.1,0.9-2.3,1.3-3.5C721.8,208.1,721.7,210.2,721.5,212.2L721.5,212.2z
				 M713.2,192.6c1.4,1.2,2.4,2.6,3,4.3c0,0.1,0.1,0.2,0.1,0.3c-1.7-1.2-3.9-1.8-5.6-3c-1.4-1-2.1-2.5-2.7-4c-0.6-1.5-0.9-3-1.1-4.5
				c1.5,0.6,3.1,1,4.6,1.6c1.6,0.6,3.1,1.3,4.3,2.5c1.2,1.3,1.6,3.1,1.7,4.9c0,0.6,0,1.1,0,1.7c-0.7-2-1.8-3.7-3.6-4.9
				C713.4,191.2,712.7,192.1,713.2,192.6L713.2,192.6z M713.2,179c-2.9,1.9-6.3,2.8-9.8,2.6c0.7-1.4,1.3-2.8,1.7-4.3
				c0.6-1.9,0.9-3.9,1-5.8C708.8,173.8,711.1,176.3,713.2,179L713.2,179z M679.6,157.8c-0.4-0.3-0.9-0.5-1.4-0.7
				c-0.1-0.1-0.3-0.1-0.4-0.2c-0.2-0.1-0.5-0.3-0.7-0.4c0.1,0,0.1,0,0.2,0c1,0.3,2.1,0.6,3.1,0.9c2,0.6,4,1.2,5.9,2
				C684,159.2,681.7,158.7,679.6,157.8L679.6,157.8z M685.9,162.6c-1.1-1-2.3-1.9-3.5-2.9c0.9,0.2,1.8,0.4,2.7,0.5
				c0.9,0.1,1.7,0.1,2.6,0.1c0.3,0,0.7-0.1,0.9,0.1c0.2,0.1,0.2,0.4,0.3,0.6c0.2,0.5,0.3,1,0.4,1.5c0.3,1.2,0.4,2.4,0.5,3.6
				C688.5,164.9,687.2,163.7,685.9,162.6L685.9,162.6z M690.7,167c0.1-1.5,0-3.1-0.4-4.6c-0.1-0.5-0.2-1.1-0.4-1.6
				c2.7,1.2,5.3,2.6,7.8,4.2c1.7,1.1,3.3,2.2,4.9,3.4c-3.3,0.7-6.8,0.8-10.2,0.2C691.9,168.1,691.3,167.5,690.7,167L690.7,167z
				 M700.4,179.3c-1.8-3.5-4.2-6.6-6.9-9.5c3.3,0.4,6.6,0.2,9.9-0.5c0.2,0.4,0.5,0.7,1,0.8c-0.5,3.6-1.7,7.2-3.4,10.5
				C700.8,180.1,700.6,179.7,700.4,179.3L700.4,179.3z M705.3,170.6c0.2,0.1,0.3,0.3,0.5,0.4c-0.1,2.1-0.5,4.1-1,6.1
				c-0.4,1.5-1,3-1.8,4.4c-0.4,0-0.9-0.1-1.3-0.2C703.5,178,704.7,174.4,705.3,170.6L705.3,170.6z M701.8,182.4
				c0.2,0,0.4,0.1,0.6,0.1c-0.1,0.2-0.2,0.4-0.4,0.6C702,182.8,701.9,182.6,701.8,182.4L701.8,182.4z M702.2,183.4
				c0.1,0,0.2,0,0.2-0.1c0.2-0.3,0.3-0.5,0.5-0.8c3.8,0.3,7.7-0.7,10.9-2.7c0.8,1,1.5,2,2.2,3.1c2.9,4.4,5.1,9.3,5.4,14.6
				c0,0.3,0.1,0.5,0.3,0.6c-0.9,4.1-1.5,8.4-3.5,12c0.5-2.5,0.5-5.2,0.3-7.7c-0.1-1-0.2-2.1-0.3-3.2c0.6-3.5,1.2-7.3-1.2-10.1
				c-1.2-1.4-2.9-2.3-4.6-2.9c-2-0.8-4.1-1.4-6.1-2c-0.5-0.1-0.9,0.3-0.8,0.8c0.4,1.9,0.9,3.8,1.5,5.6c0.6,1.6,1.3,3.1,2.6,4.2
				c2.2,1.8,5.3,2.2,7.2,4.5c0,0.1,0.1,0.1,0.1,0.1c0.2,1.1,0.3,2.2,0.4,3.3c0.2,3.1,0.5,6.4-0.4,9.4c-0.6,0.8-1.4,1.5-2.3,2.2
				c-1.4,1.1-3,1.9-4.7,2.5c-1.6,0.5-3.3,0.9-5,0.9c0.6-0.4,1.2-0.8,1.7-1.2c1.8-1.4,3.4-3,4.8-4.9c1.3-1.8,2.1-4,1.8-6.2
				c-0.3-1.9-1.5-3.7-3.3-4.4c-2.1-0.8-4.3,0.1-6.1,1.3c-0.1-0.7-0.3-1.3-0.7-1.9C704.9,194.9,704.2,188.9,702.2,183.4L702.2,183.4z
				 M698.3,224.4c1.2,1.9,2.5,3.8,4.3,5.1c1.9,1.3,4.3,2,6.4,1.2c0,0.4-0.1,0.8-0.3,1.2c-0.5,1.1-1.7,1.8-2.8,2
				c-1.3,0.3-2.5-0.2-3.6-0.8c-2-1.3-3-3.4-3.7-5.6C698.6,226.4,698.5,225.4,698.3,224.4L698.3,224.4z M696.6,227.9
				c-0.1,1.2-0.3,2.5-1,3.6c-1,1.8-3,3.1-5.1,2.2c-0.1,0-0.2-0.1-0.3-0.1c1.7-0.9,2.6-2.6,3.2-4.4c0.6-1.9,1-4.3,2.7-5.7
				c0.1,0,0.2,0,0.3,0c0.2,0,0.5,0,0.7-0.1c-0.1,0.1-0.2,0.2-0.3,0.4C696.5,225.1,696.7,226.5,696.6,227.9L696.6,227.9z
				 M693.3,220.8c0.4-0.5,1.1-0.8,1.8-0.7c0.7,0.1,1.4,0.6,1.7,1.3c0,0.1,0,0.2,0,0.2C695.6,221.8,694.3,221.5,693.3,220.8
				L693.3,220.8z M695.1,219.2c-0.5-0.1-1,0-1.4,0.2c-0.1-0.6-0.4-1.1-0.8-1.4c0.7,0,1.3-0.2,1.9-0.7c0.4-0.3,0.6-0.8,0.8-1.2
				c0.4,0.5,0.9,0.9,1.6,1c1,0.2,2.1-0.2,2.8-1c0,0,0,0.1,0.1,0.1c0,0-0.1,0-0.1,0.1c-0.6,0.6-0.9,1.5-0.6,2.2
				c0.1,0.2,0.2,0.4,0.3,0.5c-0.6,0-1.2,0.1-1.7,0.5c-0.3,0.2-0.5,0.5-0.6,0.8C696.6,219.6,695.9,219.3,695.1,219.2L695.1,219.2z
				 M695.8,214.4c0.9-0.2,1.8-0.1,2.7,0.4c0.3,0.1,0.5,0.3,0.8,0.6c0,0,0,0,0,0c-0.4,0.6-1.2,0.9-1.9,0.7c-0.7-0.2-1.3-0.8-1.4-1.5
				C695.9,214.5,695.8,214.4,695.8,214.4L695.8,214.4z M697.7,221.3C697.7,221.3,697.7,221.3,697.7,221.3
				C697.7,221.3,697.7,221.3,697.7,221.3c0-0.1,0-0.1,0-0.2c0-0.1,0-0.2,0.1-0.3c0,0,0,0,0,0s0,0,0,0c0,0,0-0.1,0.1-0.1
				c0-0.1,0.1-0.1,0.1-0.2c0,0,0,0,0,0c0,0,0,0,0,0c0,0,0.1-0.1,0.1-0.1c0,0,0.1-0.1,0.1-0.1c0,0,0.1,0,0.1-0.1c0,0,0.1,0,0.1,0
				c0,0,0.1,0,0.1-0.1c0,0,0.1,0,0.1-0.1c0,0,0.1,0,0.1,0c0.1,0,0.2-0.1,0.3-0.1c0,0,0.1,0,0.1,0c0,0,0.1,0,0.1,0c0.1,0,0.2,0,0.3,0
				c0,0,0.1,0,0.1,0c0,0,0.1,0,0.1,0c0,0,0.1,0,0.1,0c-0.6,0.6-1.2,1.1-2,1.4C697.7,221.4,697.7,221.3,697.7,221.3L697.7,221.3z
				 M702.7,228.4c-1.8-1.5-3-3.5-4.2-5.4c0.6-0.2,1.1-0.5,1.6-0.9c0,0.2,0,0.4,0.2,0.5c0.2,0.2,0.5,0.4,0.8,0.6
				c0.1,0.1,0.2,0.2,0.3,0.2c0.1,0,0.1,0.1,0.2,0.1c0,0,0,0,0,0c0,0,0,0,0,0c0.2,0.2,0.4,0.4,0.6,0.6c0.1,0.1,0.2,0.2,0.3,0.3
				c0.1,0.1,0.2,0.2,0.2,0.3c0.7,0.9,1.1,2,1.3,3.1c0.1,0.6,1,0.4,1-0.1c0.1-1.3-0.4-2.6-1-3.7c-0.3-0.6-0.8-1.1-1.2-1.5
				c-0.3-0.2-0.5-0.5-0.8-0.7c-0.3-0.2-0.7-0.3-1.1-0.4c0.3-0.3,0.6-0.7,0.8-1.1c1.3,0.1,2.7,0,4,0c1.6,0,3.3,0.1,4.9,0.5
				c1.2,0.3,3.3,0.7,3.9,1.9c0.7,1.2-0.6,2.8-1.5,3.5c-1.2,0.9-2.9,0.7-3.6,2.2c-0.2,0.4-0.3,0.9-0.3,1.4c0,0,0,0,0,0
				C706.9,230.6,704.4,229.8,702.7,228.4L702.7,228.4z M700.1,217.8c0,0,0-0.1,0-0.1c0,0,0,0,0-0.1c0,0,0-0.1,0-0.1c0,0,0-0.1,0-0.1
				c0,0,0-0.1,0-0.1c0,0,0,0,0-0.1c0,0,0-0.1,0-0.1c0,0,0-0.1,0.1-0.1c0,0,0-0.1,0.1-0.1c0,0,0,0,0,0c0,0,0,0,0,0
				c0,0,0.1-0.1,0.1-0.1c0.1,0.2,0.2,0.4,0.3,0.6c-0.1,0.1-0.3,0.3-0.4,0.4c-0.1,0.1-0.1,0.2-0.2,0.2c0,0,0,0,0-0.1c0,0,0-0.1,0-0.1
				c0,0,0,0,0-0.1c0,0,0-0.1,0-0.1C700.1,217.9,700.1,217.9,700.1,217.8L700.1,217.8z M702,217.9c0-0.1,0-0.2,0-0.3
				c0.2-0.2,0.4-0.4,0.6-0.6c0.6-0.6,1.2-1.1,1.8-1.8c1.1-1.2,2-2.6,2.6-4.1c1.1-2.7,1.9-6,0.1-8.5c0.5-0.1,1.1-0.2,1.6-0.1
				c1.6,0.3,2.6,1.8,2.9,3.3c0.3,1.9-0.6,3.7-1.7,5.2c-1.1,1.6-2.5,3-4,4.3c-0.8,0.7-1.7,1.4-2.6,2c-0.4,0.3-0.8,0.5-1.1,0.8
				C702.1,218,702.1,217.9,702,217.9L702,217.9z M693.2,202.1c0.5-1.5,1.5-2.7,3-3.2c1.4-0.4,2.9-0.3,4.1,0.6c1.4,1,2,2.7,1.8,4.4
				c-0.1,0.6,0.8,1.1,1.3,0.7c0.8-0.6,1.8-1.2,2.8-1.7c1,1.3,1.2,3,0.9,4.5c-0.3,1.7-1,3.5-1.8,5c-0.8,1.5-2.1,2.6-3.3,3.8
				c0,0-0.1,0.1-0.1,0.1c-0.3-1.1-1-2.1-1.9-2.8c0,0-0.1-0.1-0.1-0.1c0.1-0.1,0.1-0.3,0.2-0.4c0.1-0.3,0.2-0.5,0.2-0.8
				c0.1-0.6,0.2-1.2,0.2-1.8c-0.1-1.1-0.3-2.4-1.1-3.3c-0.3-0.4-0.8,0-0.7,0.4c0.1,0.5,0.3,1,0.3,1.4c0.1,0.5,0.1,1,0,1.5
				c0,0.5-0.1,0.9-0.2,1.3c-0.1,0.2-0.1,0.5-0.2,0.6c0,0.1-0.1,0.2-0.1,0.3c-1.7-0.5-3.5-0.3-5.1,0.5c-0.1,0-0.1,0.1-0.2,0.1
				c-0.2-1.9-0.4-3.8-0.5-5.7C692.6,205.9,692.6,203.9,693.2,202.1L693.2,202.1z M693.7,215.2c0.3-0.2,0.6-0.4,0.9-0.5
				c0,0.1,0,0.1,0.1,0.2c0,0,0,0,0,0c0,0,0,0,0,0c0,0.1,0,0.1,0,0.2c0,0.1,0,0.2,0,0.3c0,0,0,0,0,0c0,0,0,0,0,0.1c0,0.1,0,0.1,0,0.2
				c0,0.1-0.1,0.2-0.1,0.3c0,0,0,0,0,0.1c0,0,0,0.1-0.1,0.1c0,0-0.1,0.1-0.1,0.1c0,0-0.1,0.1-0.1,0.1c-0.1,0.1-0.1,0.1-0.2,0.2
				c0,0-0.1,0.1-0.1,0.1c0,0-0.1,0-0.1,0c-0.1,0.1-0.2,0.1-0.3,0.2c0,0,0,0,0,0c0,0,0,0,0,0c0,0-0.1,0-0.1,0c-0.1,0-0.2,0.1-0.3,0.1
				c0,0,0,0,0,0c0,0,0,0,0,0c-0.1,0-0.1,0-0.2,0c-0.1,0-0.2,0-0.3,0c0,0,0,0,0,0c0,0,0,0-0.1,0c-0.1,0-0.1,0-0.2,0c0,0-0.1,0-0.1,0
				c0,0,0,0,0,0C692.6,216.2,693.1,215.6,693.7,215.2L693.7,215.2z M691.9,218.4C691.9,218.4,691.9,218.4,691.9,218.4
				C692,218.4,692,218.4,691.9,218.4c0.1,0.1,0.1,0.1,0.1,0.1c0,0,0.1,0.1,0.1,0.1c0.1,0.1,0.2,0.2,0.2,0.3l0,0c0,0,0,0,0,0l0,0
				c0,0,0,0,0,0c0,0,0,0,0,0c0,0,0.1,0.1,0.1,0.1c0,0,0.1,0.1,0.1,0.2c0,0,0,0.1,0,0.1l0,0c0,0.1,0.1,0.2,0.1,0.3c0,0,0,0.1,0,0.1
				c0,0,0,0,0,0c0,0,0,0.2,0,0.2c0,0,0,0,0,0c-0.1,0.1-0.2,0.2-0.2,0.2c-0.1-0.1-0.2-0.3-0.3-0.4C692,219.3,691.9,218.8,691.9,218.4
				C691.9,218.4,691.9,218.4,691.9,218.4L691.9,218.4z M686.5,227.4c1.5-0.2,2.8-0.8,4-1.6c0.6-0.4,1.2-0.9,1.7-1.4
				c0.3-0.3,0.5-0.6,0.7-0.9c0.1-0.2,0.3-0.4,0.4-0.6c0.5,0.2,1,0.4,1.6,0.5c-1.1,1.3-1.6,2.9-2.1,4.5c-0.5,1.9-1.3,4.2-3.3,5
				c-0.1,0-0.2,0.1-0.2,0.2c-0.5-0.3-1-0.7-1.4-1.1c-0.9-0.8-1.9-1.6-2.9-2.3c-1.1-0.7-2.2-1.3-3.4-1.8c-0.3-0.1-0.6-0.2-1-0.4
				c0-0.1-0.1-0.1-0.1-0.2c-0.9-0.9,0.2-2,1-2.4c1.1-0.5,2.3-0.8,3.4-1.1c2.1-0.7,4.1-1.5,5.9-2.8c0.3,0.4,0.6,0.8,1,1.1
				c0,0-0.1,0.1-0.1,0.1c-0.1,0.1-0.2,0.2-0.3,0.4c-0.2,0.3-0.3,0.4-0.5,0.7c-0.4,0.5-0.9,1-1.4,1.4c-1,0.8-2.1,1.5-3.3,2.1
				C685.9,226.8,686,227.5,686.5,227.4L686.5,227.4z M679.8,225c-0.4,0.5-0.5,1.1-0.5,1.6c-0.2-0.2-0.3-0.3-0.4-0.5
				c-1-1.9,0.1-3.7,1.6-4.8c0.1,0,0.3,0,0.4,0.1c3,0.3,6-0.2,8.9-0.9c-2,1.4-4.5,2.1-6.8,2.8C681.9,223.6,680.6,224,679.8,225
				L679.8,225z M679.3,206.4c-0.1-1.6-0.2-3.4,0.9-4.7c1.1-1.2,2.9-0.9,4.2-0.3c3,1.2,4.8,4.1,5.9,6.9c0.3,0.8,0.6,1.7,0.9,2.5
				c0,0.5,0.1,1,0.2,1.5c-0.5-0.4-1-0.8-1.5-1.1c-1.1-0.6-2.4-0.9-3.6-1c-0.5-0.1-0.7,0.9-0.1,1c1.1,0.2,2,0.7,2.9,1.3
				c0.8,0.6,1.6,1.3,2.2,2.1c0.1,0.1,0.2,0.3,0.3,0.4c-0.2,0.2-0.4,0.5-0.6,0.8c-0.5-0.4-1.1-0.7-1.7-1c-0.8-0.4-1.6-0.7-2.5-0.9
				c-1.7-0.4-3.5-0.5-5.2-0.1c-0.3,0.1-0.2,0.5,0.1,0.5c1.6,0,3.2,0.3,4.7,0.8c0.8,0.3,1.5,0.6,2.2,1c0.6,0.3,1.1,0.8,1.7,1.1
				c0,0.2-0.1,0.3-0.1,0.5c-1.7,0.1-3.4,0-5.1-0.1c-1.9-0.2-4-0.5-5.7-1.5c-1.5-0.9-2.7-2.7-2.3-4.5c0.3-1.6,1.5-2.8,1.9-4.4
				C679.2,207,679.3,206.7,679.3,206.4L679.3,206.4z M676.8,218.4c-1.7-0.8-3.1-2.1-3.9-3.8c-0.7-1.6-0.8-3.5-0.2-5.1
				c0.4-0.9,1-1.7,1.8-2.2c1-0.6,2.3-0.3,3.4-0.1c-0.5,1.5-1.7,2.8-1.9,4.5c-0.2,1.9,0.9,3.7,2.3,4.8c1.7,1.3,3.9,1.7,5.9,1.9
				c1.8,0.2,3.7,0.3,5.6,0.2C685.7,219.6,680.9,220.5,676.8,218.4L676.8,218.4z M665.6,235.7c0.6-2,1.6-4,2.9-5.7
				c0.2-0.2,0.5-0.4,0.7-0.6c1.3-1.2,2.5-2.5,3.7-3.8c0.2-0.1,0.3-0.1,0.5-0.2c0.2-0.1,0.3-0.4,0.2-0.5c0.3-0.3,0.6-0.6,0.8-0.8
				c1.3-1.3,2.9-2.4,4.7-2.9c0,0,0,0,0,0c-1.2,0.8-2.1,2.2-2.2,3.8c0,1.2,0.5,2.5,1.4,3.3c1.1,0.9,2.7,1.3,4,1.9
				c1.3,0.7,2.5,1.6,3.6,2.6c0,0,0.1,0.1,0.1,0.1c0,0-0.1,0-0.1,0.1c-0.1,0.1-0.2,0.1-0.2,0.2c-0.2,0.2-0.4,0.4-0.6,0.6
				c-0.4,0.4-0.8,0.7-1.2,1.1c-0.4,0.3-0.8,0.7-1.2,1c0,0-0.1,0.1-0.1,0.1c0,0-0.1,0.1-0.1,0.1c-0.1,0.1-0.2,0.2-0.3,0.2
				c-0.2,0.2-0.5,0.3-0.7,0.5c-0.1,0.1-0.1,0.1-0.1,0.2c-0.9-0.4-1.9-0.6-2.9-0.5c-1.5,0.1-3,1-3.5,2.6c-0.2,0.6-0.1,1.1,0,1.6
				c-0.9,0.3-1.9,0.5-2.9,0.7c-1.1,0.2-2.3,0.2-3.5,0.2c-0.2,0-0.3,0.1-0.5,0.2c-0.6-1.5-1.5-2.8-2.7-3.9c-0.1-0.1-0.3-0.2-0.4-0.2
				C665.2,236.8,665.4,236.2,665.6,235.7L665.6,235.7z M697.7,242.1c0.6,0.6,1.5,0.4,2.3,0.4c0.6,0,1.1,0.1,1.7,0.2
				c0.9,0.7,1.5,1.8,1.3,3c-0.2,1.5-1.4,2.8-2.4,3.8c-2,2-4.5,3.5-7.2,4.4c0-0.8-0.1-1.6-0.4-2.4c0.5-0.4,1.1-0.9,1.7-1.2
				c0.7-0.4,1.4-0.7,2.1-0.9c0.6-0.2,0.4-1.1-0.3-1c-0.9,0.2-1.7,0.5-2.4,1.1c-0.5,0.4-1.1,0.8-1.5,1.3c-0.2-0.3-0.4-0.6-0.6-0.9
				c-0.1-0.1-0.2-0.2-0.2-0.2c0.1,0,0.2-0.1,0.4-0.2c0.1-0.1,0.1-0.1,0.2-0.2c0.1-0.2,0.3-0.3,0.4-0.4c0.3-0.3,0.6-0.6,0.9-0.8
				c0,0,0,0,0.1,0c0,0,0.1-0.1,0.1-0.1c0.1-0.1,0.2-0.1,0.2-0.2c0.2-0.1,0.3-0.2,0.5-0.3c0.2-0.1,0.4-0.2,0.5-0.3c0,0,0.2-0.1,0.1,0
				c0.1,0,0.1-0.1,0.2-0.1c0.1,0,0.2-0.1,0.3-0.2c0.2-0.1,0.3-0.4,0.2-0.7c-0.1-0.3-0.4-0.4-0.6-0.3c-0.9,0.2-1.7,0.7-2.4,1.3
				c-0.3,0.3-0.6,0.6-0.9,0.9c-0.1,0.2-0.3,0.4-0.4,0.6c-0.1,0.1-0.1,0.2-0.2,0.3c0,0.1,0,0.2,0,0.3c-0.7-0.5-1.6-0.8-2.5-0.7
				c1-3,1.8-6,3.6-8.6c0.8-1.1,2.2-2.8,3.7-2.9c0.6-0.1,1.3,0.2,1.4,0.9c0.1,0.7-0.3,1.5-0.4,2.2
				C697.2,240.7,697.2,241.5,697.7,242.1L697.7,242.1z M690.8,253.9c0-0.3,0.2-0.6,0.4-0.9c0.2-0.2,0.5-0.4,0.8-0.4
				c0.2,0.9,0.1,1.9-0.3,2.8c0,0,0,0.1-0.1,0.1C691.1,255.2,690.7,254.6,690.8,253.9L690.8,253.9z M690.7,251.8
				C690.7,251.8,690.7,251.8,690.7,251.8C690.7,251.8,690.7,251.8,690.7,251.8c-0.1,0-0.2,0-0.2-0.1c0,0,0,0,0,0c0,0-0.1,0-0.1-0.1
				c0,0-0.1,0-0.1-0.1c0,0,0,0,0,0c-0.1,0-0.1-0.1-0.2-0.2c0,0,0,0,0,0c0,0,0-0.1,0-0.1c0,0,0-0.1-0.1-0.1c0,0,0,0,0-0.1
				c0-0.1-0.1-0.2-0.1-0.3c0-0.1,0-0.1,0-0.2c0,0,0,0,0,0v0c0-0.1,0-0.2,0-0.3c0-0.1,0-0.2,0-0.3c0,0,0,0,0-0.1c0,0,0,0,0,0
				c0,0,0-0.1,0-0.1c0-0.1,0-0.1,0-0.2c0.3,0.1,0.5,0.2,0.8,0.4c0.5,0.4,0.9,1,1.1,1.5c-0.1,0-0.1,0-0.2,0c-0.1-0.1-0.3-0.1-0.5,0
				c0,0-0.1,0-0.1,0c0,0,0,0-0.1,0c0,0-0.1,0-0.1,0C690.8,251.8,690.8,251.8,690.7,251.8C690.8,251.8,690.7,251.8,690.7,251.8
				L690.7,251.8z M689.2,251.9c0.3,0.4,0.7,0.7,1.1,0.8c-0.3,0.4-0.4,0.8-0.5,1.3c0,0.5,0.1,1,0.4,1.5c-0.6,0-1.2,0.1-1.7,0.5
				c-0.2,0.2-0.4,0.4-0.6,0.6c-0.4-0.5-0.9-0.8-1.5-0.9c0.4-0.6,0.5-1.4,0.2-2.1c-0.1-0.3-0.2-0.5-0.4-0.7c0.7,0,1.4-0.2,1.9-0.7
				c0.3-0.3,0.5-0.6,0.7-1C688.9,251.3,689,251.6,689.2,251.9z M676.6,240.4C676.6,240.4,676.6,240.4,676.6,240.4
				c2.6-0.6,4.7,1.3,6,3.1c1.4,2,2.6,4.2,2.7,6.7c0,0,0,0,0,0c-0.1,0.1-0.2,0.2-0.3,0.3c-0.8,0.6-1.5,1.5-1.8,2.6c0,0,0,0,0,0
				c-1.5-0.6-3.1-1.1-4.7-1.6c-1.5-0.5-3.1-0.8-4.5-1.6c-1.1-0.6-2.1-1.7-1.9-3.1c0.2-1.2,1.3-2.1,2.3-2.8c1.1-0.7,2.4-1.3,2.3-2.8
				C676.7,241,676.6,240.7,676.6,240.4L676.6,240.4z M684.7,252.7C684.7,252.7,684.7,252.7,684.7,252.7c0.1,0,0.1,0,0.1,0
				c0.1,0,0.1,0.1,0.2,0.1c0,0,0.1,0.1,0.1,0.1c0,0,0,0,0,0c0.3,0.2,0.4,0.5,0.5,0.7c0.2,0.6,0.1,1.3-0.4,1.7c0,0-0.1,0.1-0.1,0.1
				c-0.2,0-0.3,0.1-0.5,0.2c-0.3-0.6-0.4-1.2-0.4-1.8C684.4,253.5,684.5,253,684.7,252.7L684.7,252.7z M685.3,256.5c0,0,0.1,0,0.1,0
				c0.1,0,0.1,0,0.2,0c0,0,0,0,0,0c0,0,0.1,0,0.1,0c0.1,0,0.1,0,0.2,0c0,0,0,0,0,0c0,0,0.1,0,0.1,0c0.1,0,0.3,0.1,0.4,0.1
				c0,0,0,0,0,0c0,0,0.1,0,0.1,0.1c0.1,0,0.1,0.1,0.2,0.1c0,0,0.1,0,0.1,0.1l0,0l0,0c0.1,0,0.1,0.1,0.2,0.2c0,0,0.1,0.1,0.1,0.1
				c0,0,0,0,0,0c0,0,0,0.1,0.1,0.1c0,0.1,0.1,0.1,0.1,0.2c0,0,0,0,0,0c0,0,0,0.1,0,0.1c0,0.1,0,0.1,0,0.2c0,0-0.1,0-0.1,0
				C686.5,257.5,685.8,257.1,685.3,256.5C685.3,256.5,685.3,256.5,685.3,256.5L685.3,256.5z M688.1,250.1
				C688.1,250.1,688.1,250.2,688.1,250.1c0,0.1,0,0.2,0,0.2c0,0.1,0,0.2-0.1,0.2c0,0,0,0,0,0c0,0,0,0,0,0c0,0,0,0.1-0.1,0.1
				c0,0.1-0.1,0.2-0.1,0.2c0,0,0,0.1-0.1,0.1c0,0,0,0-0.1,0.1c-0.1,0.1-0.1,0.1-0.2,0.2c0,0,0,0,0,0c0,0-0.1,0-0.1,0.1
				c-0.1,0.1-0.2,0.1-0.2,0.1c0,0,0,0,0,0c0,0,0,0,0,0c0,0-0.1,0-0.1,0c-0.1,0-0.2,0-0.3,0.1c0,0-0.1,0-0.1,0c0,0-0.1,0-0.1,0
				c-0.1,0-0.2,0-0.3,0c0,0-0.1,0-0.1,0c0,0-0.1,0-0.1,0c-0.1,0-0.2,0-0.3-0.1c-0.1,0-0.2,0-0.4,0c0.1-0.1,0.2-0.2,0.3-0.3
				c0.3-0.2,0.6-0.5,1-0.7c0.5-0.3,1-0.5,1.6-0.7C688.1,250,688.1,250.1,688.1,250.1L688.1,250.1z M686.2,249.5
				c-0.3-2.5-1.6-4.8-3.1-6.8c-1.6-2.1-3.9-3.8-6.6-3.2c0-0.1,0-0.1,0.1-0.2c0.2-0.6,0.7-1,1.2-1.2c1.3-0.5,2.8,0,4,0.6
				c1,0.6,1.9,1.3,2.7,2.3c0.9,1.1,1.5,2.3,2,3.6c0.5,1.3,0.7,2.7,0.9,4.1c0,0.1,0,0.1,0.1,0.2C687,248.9,686.6,249.2,686.2,249.5
				L686.2,249.5z M662,240c0.4-0.8,1-1.3,1.7-1.7c-0.3,1.5-0.3,3.1,0,4.6c0.1,0.6,1,0.4,1-0.1c0-1.2,0-2.4,0.1-3.6
				c0-0.2,0-0.3,0.1-0.5c0.8,0.9,1.5,1.9,2,3c0.3,0.6,0.6,1.3,0.6,2c0,0.7-0.4,1.4-0.7,2c-0.9,1.4-2.2,2.7-3.6,3.6
				c0.1-1.7-1-3.8-1.3-5.1c-0.2-0.7-0.3-1.4-0.2-2.1C661.8,242.1,661.9,240.4,662,240L662,240z M625.6,235.8
				c-2.3-3.7-4.4-7.5-6-11.5c-1.3-3.3-2.3-6.7-2.5-10.2c2.3,5,5.5,9.5,9.5,13.4c0.5,3.9,0.9,7.9,1.4,11.8
				C627.1,238.1,626.3,237,625.6,235.8L625.6,235.8z M629,240.8c-0.5-4.1-1-8.2-1.4-12.4c0.1,0,0.1,0.1,0.2,0.2
				c0.2,0.2,0.4,0.3,0.5,0.5c0.9,4.3,1.5,8.7,1.8,13.1C629.7,241.7,629.4,241.3,629,240.8L629,240.8z M634.5,250.7
				c0,0.1-0.1,0.2-0.2,0.3c0,0-0.1,0-0.1,0.1c0,0,0,0,0,0s0,0,0,0c0,0-0.1,0-0.1,0c0,0,0,0,0,0c0,0-0.1,0-0.1,0c-0.1,0-0.2,0-0.2,0
				c-0.1,0-0.4-0.1-0.5-0.1c-0.3-0.1-0.6-0.3-0.9-0.5c-0.3-0.2-0.6-0.4-0.8-0.7c-0.1-0.2-0.2-0.2-0.2-0.4c0,0,0-0.1,0-0.2
				c0,0,0,0,0,0c0,0,0-0.1,0-0.1c0,0,0,0,0,0c0,0,0,0,0,0c0,0,0-0.1,0.1-0.1c0,0,0,0,0,0c0,0,0-0.1,0.1-0.1c0,0,0,0,0.1-0.1
				c0,0,0,0,0,0c0,0,0,0,0,0c0,0,0.1,0,0.1-0.1c0,0,0.1,0,0.1,0c0.3-0.1,0.6-0.1,0.8-0.1c0.3,0.1,0.5,0.1,0.7,0.2
				c0,0.2,0.1,0.4,0.2,0.5c0.3,0.2,0.6,0.5,0.8,0.7c0.1,0.1,0.2,0.3,0.3,0.4c0,0,0,0.1,0,0.1c0,0,0,0.1,0,0.1c0,0,0,0.1,0,0.1
				C634.5,250.6,634.4,250.7,634.5,250.7L634.5,250.7z M634.5,247c-0.4-0.4-0.8-0.8-1.2-1.2c-0.7-0.8-1.4-1.6-2.1-2.4
				c-0.3-4.5-0.9-9-1.7-13.4c4.9,4,10.5,7.1,16.5,9.1c-0.6,0.4-1.1,0.8-1.7,1.1c-0.2-0.1-0.4-0.2-0.7-0.2h-0.1c-0.2,0-0.4,0-0.6,0.1
				c-0.2,0.1-0.3,0.2-0.5,0.3c-0.1,0.1-0.2,0.3-0.3,0.5c-0.1,0.2-0.1,0.4-0.1,0.6c0,0.1,0,0.1,0,0.2c-1.5,1-3.1,2.1-4.6,3.1
				c-0.2-0.1-0.4-0.2-0.6-0.2h-0.1c-0.2,0-0.4,0-0.6,0.1c-0.2,0.1-0.3,0.2-0.5,0.3c-0.1,0.1-0.2,0.3-0.3,0.5
				c-0.1,0.2-0.1,0.4-0.1,0.6c0,0.1,0,0.2,0,0.3C635,246.6,634.8,246.8,634.5,247L634.5,247z M648.3,256.3c-1.9-0.8-3.7-1.7-5.5-2.7
				c-2.8-1.7-5.3-3.6-7.6-5.8c0.2-0.1,0.4-0.3,0.6-0.4c0.1,0.1,0.1,0.1,0.2,0.2c0.2,0.1,0.5,0.2,0.7,0.2h0.1c0.2,0,0.4,0,0.6-0.1
				c0.2-0.1,0.3-0.2,0.5-0.3c0.1-0.1,0.2-0.3,0.3-0.5c0.1-0.2,0.1-0.4,0.1-0.6c0-0.1,0-0.3-0.1-0.4c0-0.1-0.1-0.1-0.1-0.2
				c1.4-1,2.9-2,4.3-3c0.1,0.1,0.2,0.1,0.3,0.2c0.2,0.1,0.5,0.2,0.7,0.2h0.1c0.2,0,0.4,0,0.6-0.1c0.2-0.1,0.3-0.2,0.5-0.3
				c0.1-0.1,0.2-0.3,0.3-0.5c0.1-0.2,0.1-0.4,0.1-0.6c0-0.1,0-0.3-0.1-0.4c0-0.1,0-0.1-0.1-0.2c0.7-0.5,1.5-1,2.2-1.5
				c1.1,5.8,2.2,11.7,3.3,17.5C649.7,256.8,649,256.6,648.3,256.3L648.3,256.3z M654.3,256.6c-0.1,0.1-0.2,0.3-0.3,0.5
				c-0.1,0.2-0.1,0.4-0.1,0.6c0,0.1,0,0.3,0.1,0.4c0,0,0,0.1,0.1,0.1c-0.8-0.2-1.7-0.5-2.5-0.7c-1.1-5.8-2.2-11.7-3.3-17.5
				c0.2,0,0.3,0.1,0.5,0.1c0.3,0.1,0.5,0.1,0.8,0.2c0,0.1-0.1,0.1-0.1,0.1c0,0,0,0,0,0c0,0-0.1,0.3-0.1,0.3c0,0,0,0,0,0c0,0,0,0,0,0
				c0,0,0,0.4-0.1,0.4c0,0,0,0,0,0c0,0,0,0,0,0c0,0,0,0.4,0.1,0.4c0,0,0,0,0,0l0,0c0,0.1,0,0.1,0.1,0.2c-0.1-0.2,0,0.1,0.1,0.2
				c0,0,0,0,0,0c0,0,0.2,0.3,0.2,0.3l0,0c0,0,0.3,0.2,0.3,0.2l0,0c0,0,0.3,0.1,0.3,0.1c0,0,0,0,0,0c0,0,0.4,0.1,0.4,0.1c0,0,0,0,0,0
				c0,0,0,0,0,0c1.8,4.4,3.2,9,4.1,13.7C654.5,256.4,654.4,256.5,654.3,256.6L654.3,256.6z M668.9,259.7c-1.1,2.2-3.7,3.2-6.1,3.2
				c-2.4,0-4.7-0.8-6.5-2.3c2.2-0.5,4.3-1.1,6.5-1.4C664.8,258.9,667,258.9,668.9,259.7C668.9,259.7,668.9,259.7,668.9,259.7
				L668.9,259.7z M669,258.9c-1.8-0.9-3.9-1.2-6-1c-1.4,0.1-2.8,0.4-4.2,0.7c-0.1,0-0.1,0-0.2,0c-0.7,0-1.4,0-2.1,0
				c0.1-0.1,0.2-0.2,0.2-0.4c0.1-0.2,0.1-0.4,0.1-0.6c0-0.1,0-0.3-0.1-0.4c-0.1-0.2-0.2-0.4-0.4-0.6l-0.3-0.2
				c-0.2-0.1-0.3-0.1-0.5-0.2c-0.9-4.8-2.3-9.4-4.2-14c0.1-0.1,0.2-0.2,0.3-0.4c0.1-0.2,0.2-0.3,0.2-0.5c0-0.1,0-0.2,0-0.3
				c0,0,0-0.1,0-0.1c2.7,0.6,5.6,1.1,8.4,1.2c-0.1,1.5,0.3,3,0.7,4.5c0.4,1.1,1.3,3.1-0.2,3.8c-0.7,0.3-0.2,1.3,0.5,1.2v0
				c0.1,0,0.1,0,0.1-0.1c0,0,0,0,0,0c0,0,0,0,0,0c0.1-0.1,0.3-0.1,0.4-0.2c2.5-1.2,4.7-3,6.1-5.4c0.4-0.7,0.7-1.4,0.7-2.2
				c0-0.3,0-0.7-0.1-1c0,0,0,0,0,0c2.2,0.1,4.5-0.2,6.5-1.3c-0.1,0.6-0.8,0.9-1.3,1.2c-1.3,0.8-2.5,1.8-3,3.2
				c-0.6,1.5-0.2,3.1,0.8,4.3c1.2,1.5,3.2,2.1,4.9,2.6c0.8,0.2,1.6,0.5,2.3,0.7c-0.6,0-1.1,0.1-1.7,0.2c-1.8,0.3-3.7,0.7-5.3,1.6
				C670.5,256,669.3,257.2,669,258.9L669,258.9z M676.7,268c-0.2-0.9-0.3-1.9-0.6-2.8c-0.5-1.5-1.6-2.3-3.1-2.7
				c-0.7-0.1-1.4-0.2-1.9-0.7c-0.4-0.4-0.6-0.9-0.7-1.5c-0.1-1.3,0.5-2.5,1.5-3.3c1.4-1.1,3.2-1.5,4.9-1.9c2-0.4,4.3-0.8,6.3-0.2
				c0,0,0,0,0,0c0.1,0.9,0.5,1.7,1,2.4c-0.9,0.4-1.7,0.9-2.4,1.5c-1,0.8-1.9,1.8-2.6,2.9c-0.4,0.7,0.6,1.2,1,0.6
				c0.6-1,1.4-1.9,2.3-2.7c0.7-0.6,1.5-1.1,2.4-1.5c0.4,0.3,0.8,0.6,1.3,0.8c0.1,0,0.2,0.1,0.3,0.1c-1.1,2-2.2,4.1-3.5,5.9
				c-1.5,1.9-3.6,3.5-6.2,3.2C676.8,268,676.7,268,676.7,268L676.7,268z M684.6,268.6c-1,1.1-2.2,2.2-3.8,2.4
				c-1.4,0.2-2.9-0.5-3.7-1.7c-0.1-0.1-0.1-0.2-0.2-0.3c2.5,0.2,4.8-1.3,6.4-3.2c1.6-2,2.8-4.4,4.1-6.6c0.3,0,0.5,0,0.8,0
				C688,262.5,686.8,266,684.6,268.6L684.6,268.6z M688.4,257.5c0,0,0-0.1,0-0.1c0,0,0,0,0,0c0,0,0,0,0,0c0-0.1,0.1-0.1,0.1-0.2
				c0,0,0-0.1,0.1-0.1c0,0,0,0,0-0.1c0-0.1,0.1-0.1,0.2-0.2c0,0,0.1-0.1,0.1-0.1c0,0,0.1,0,0.1-0.1c0.1,0,0.1-0.1,0.2-0.1
				c0,0,0.1,0,0.1-0.1c0,0,0,0,0,0c0,0,0,0,0,0c0.1,0,0.1-0.1,0.2-0.1c0,0,0.1,0,0.1,0c0,0,0,0,0,0c0,0,0,0,0,0c0.1,0,0.2,0,0.2,0
				c0,0,0.1,0,0.1,0c0,0,0.1,0,0.1,0c0,0,0.1,0,0.1,0c0,0,0.1,0,0.1,0c0,0,0.1,0,0.1,0c0,0,0.1,0.1,0.1,0c0.1,0,0.2,0,0.2,0
				c-0.7,0.7-1.6,1.1-2.5,1.2C688.4,257.7,688.4,257.6,688.4,257.5L688.4,257.5z M694,271.9c-0.5,0.5-1.2,0.9-1.9,0.9
				c-1.3,0.1-2.5-0.9-2.8-2.1c-0.2-0.9-0.3-1.8-0.3-2.7c-0.1-0.9-0.1-1.9-0.1-2.8c0-0.4,0-0.8,0-1.2c0.4-1.1,0.6-2.3,0.8-3.4
				c0.1,2.2,0.7,4.4,1.6,6.3c0.7,1.6,1.8,3.2,3.5,3.8C694.5,271.2,694.3,271.6,694,271.9L694,271.9z M700.5,260.4
				c1.7,2,2.8,5.1,1.2,7.5c-0.3,0.4-0.7,0.8-1.1,1c-0.3,0.1-0.6,0.2-0.9,0.2c0.4-0.5,0.7-1.1,0.9-1.8c0.7-2.3,0-4.8-1.1-6.9
				c-0.4-0.7-0.8-1.4-1.3-2.1C699,258.9,699.8,259.6,700.5,260.4L700.5,260.4z M698.1,259.9c1.1,1.8,2.1,3.8,1.8,6
				c-0.1,1.2-0.6,2.3-1.5,3.1c-1.3-0.1-2.4,0-3.2,0.9c-1.5-0.4-2.4-1.9-3.1-3.3c-1.1-2.3-1.7-4.9-1.6-7.4c0-0.3-0.3-0.5-0.5-0.4
				c0.2-0.1,0.5-0.2,0.7-0.3c0.6,0.7,1.1,1.4,1.6,2.2c0.3,0.5,0.6,1,0.8,1.5c0.2,0.5,0.4,1.1,0.7,1.7c0.2,0.3,0.5,0.4,0.8,0.3
				c0.3-0.1,0.5-0.4,0.5-0.6c-0.1-0.7-0.4-1.3-0.7-1.9c-0.3-0.5-0.6-1.1-1-1.6c-0.6-0.8-1.2-1.5-1.9-2.1c0.4-0.3,0.8-0.8,1.2-1.2
				c0.1-0.2,0.2-0.4,0.3-0.6c0,0,0.1,0,0.1,0c1,0.4,2,0.7,2.9,1.4C696.9,258.2,697.5,259,698.1,259.9L698.1,259.9z M706,247.9
				c-0.5,1.5-1.8,2.7-3,3.6c-1.5,1.1-3.1,1.9-4.9,2.4c-1.2,0.3-2.5,0.5-3.7,0.6c2.9-1.1,5.6-2.8,7.6-5.1c1.1-1.2,2.1-2.7,2-4.4
				c0-0.6-0.2-1.2-0.6-1.8c0.5,0.2,0.9,0.5,1.3,0.8C705.9,245,706.5,246.4,706,247.9z M711.8,238.2c-1.5,2-3.3,3.8-5.2,5.4
				c-0.9-1.1-2.3-1.9-3.7-2.3c-0.9-0.3-2-0.4-2.9-0.3c-0.2,0-0.5,0-0.7,0c-0.1,0-0.5,0.1-0.6,0.1c-0.2-0.1,0-1.1,0.1-1.2
				c0.2-0.8,0.5-1.7,0.2-2.5c-0.2-0.8-0.8-1.4-1.6-1.7c-1.8-0.7-3.5,0.6-4.7,1.8c-2.4,2.5-3.6,5.8-4.4,9.1c-0.1-0.8-0.3-1.5-0.5-2.2
				c-0.4-1.4-1-2.7-1.9-3.9c-0.8-1.1-1.9-2.2-3.1-2.9c0.1-0.1,0.2-0.1,0.3-0.2c0.2-0.2,0.5-0.4,0.7-0.6c0.4-0.3,0.8-0.7,1.2-1.1
				c0.4-0.4,0.8-0.8,1.1-1.2c0.1-0.2,0.3-0.4,0.4-0.6c0.1-0.1,0.1-0.2,0.2-0.4c0,0,0-0.1,0-0.1c0.8,0.7,1.5,1.3,2.4,1.8
				c2.5,1.3,5.4,0.7,7.3-1.4c0.9-1,1.5-2.3,1.8-3.6c0.5,1.4,1.3,2.6,2.4,3.6c2.4,2.1,5.8,2.6,8.4,0.5c0.2-0.2,0.4-0.3,0.5-0.5
				c0.3,0.8,0.7,1.5,1.3,2.2c0.5,0.6,1,1.2,1.6,1.7C712.2,237.8,712,238,711.8,238.2L711.8,238.2z M713.2,236.4
				c-0.2-0.1-0.3-0.2-0.5-0.3c-0.5-0.4-1-0.9-1.5-1.4c-0.5-0.6-0.8-1.4-0.9-2.2c0.3-0.7,0.5-1.5,0.6-2.4c0-0.7,0.1-1.4,0.7-1.7
				c0.8-0.3,1.6-0.5,2.3-1c1.4-0.9,2.6-2.5,2.7-4.3c0.1-1.8-1.4-3-3-3.6c-1.3-0.5-2.7-0.9-4.1-1.1c1.6-0.3,3.1-0.9,4.5-1.7
				c0.5-0.3,1-0.6,1.5-1c0.6-0.2,1.3-0.4,1.8-0.6c0.7-0.2,2.4-0.9,4.1-1.6C720.3,221.8,717.8,229.8,713.2,236.4L713.2,236.4z
				 M716.7,262.9c-1,0.9-2.2,1.6-3.6,1.7c-1.2,0.1-2.3-0.3-3.4-0.5c0.8-0.9,1.4-2,1.6-3.2c0.3-1.5-0.4-3.6,1.1-4.7
				c1-0.7,2.4-0.8,3.5-1.1c0.5-0.2,1.1-0.4,1.6-0.7c-0.2,0.5-0.4,0.9-0.6,1.4c-0.4,0.8-0.8,1.5-1.4,2.2c-0.5,0.7-1.3,1.3-1.6,2.2
				c-0.1,0.4,0.3,0.8,0.7,0.7c0.8-0.3,1.4-1.1,1.9-1.8c0.5-0.7,1-1.5,1.5-2.2c0.2-0.3,0.3-0.6,0.4-0.9
				C719,258.5,718.6,261.1,716.7,262.9L716.7,262.9z M735.7,264.4c-1.5,0.3-3.3,0.5-4.5-0.6c-0.5-0.4-0.8-1-1.1-1.5
				c0.1,0.1,0.3,0.2,0.4,0.2c1,0.5,2.1,0.9,3.3,0.9c1.1,0.1,2.4-0.1,3.2-0.9c0.6-0.5,0-1.4-0.7-1.2c-0.9,0.2-1.7,0.6-2.7,0.5
				c-0.9-0.1-1.8-0.4-2.6-0.8c-0.1-0.1-0.2-0.1-0.3-0.2c0.1,0,0.2,0,0.3,0c1.5,0,2.8-0.8,4.3-1.1c2.3-0.6,4.4,0.9,6.6,1
				C740.5,262.6,738.2,263.9,735.7,264.4L735.7,264.4z"/>
		</g>
		<path class="st3" d="M565.5,249.1c-1.1,0-1.1,1.8,0,1.8C566.7,250.9,566.7,249.1,565.5,249.1z"/>
		<path class="st3" d="M566.9,247.6c0-0.1-0.1-0.3-0.2-0.4l-0.2-0.1c-0.1-0.1-0.3-0.1-0.4-0.1h-0.2c-0.1,0-0.2,0-0.3,0.1
			c-0.1,0-0.2,0.1-0.3,0.2c-0.1,0.1-0.1,0.2-0.2,0.3c-0.1,0.1-0.1,0.2-0.1,0.3c0,0.1,0,0.2,0,0.2c0,0.1,0.1,0.3,0.2,0.4
			c0.1,0,0.1,0.1,0.2,0.1c0.1,0.1,0.3,0.1,0.5,0.1h0.2c0.1,0,0.2,0,0.3-0.1c0.1,0,0.2-0.1,0.3-0.2c0.1-0.1,0.1-0.2,0.2-0.3
			c0.1-0.1,0.1-0.2,0.1-0.3C566.9,247.7,566.9,247.6,566.9,247.6z"/>
		<path class="st3" d="M566.4,244.9c-1.1,0-1.1,1.8,0,1.8S567.5,244.9,566.4,244.9z"/>
		<path class="st3" d="M547.9,246.5c-1.1,0-1.1,1.8,0,1.8C549,248.2,549,246.5,547.9,246.5z"/>
		<path class="st3" d="M550.7,246.5c-1.1,0-1.1,1.8,0,1.8C551.8,248.2,551.8,246.5,550.7,246.5z"/>
		<path class="st3" d="M559.1,243.8H559c-1.1,0-1.1,1.8,0,1.8h0.1C560.2,245.6,560.2,243.8,559.1,243.8z"/>
		<path class="st3" d="M545.5,236.1c0-0.1-0.1-0.2-0.2-0.3c-0.1-0.1-0.2-0.1-0.3-0.2c-0.1-0.1-0.2-0.1-0.3-0.1c-0.1,0-0.2,0-0.2,0
			c-0.1,0-0.3,0.1-0.4,0.2l-0.1,0.2c-0.1,0.1-0.1,0.3-0.1,0.4v0.3c0,0.1,0,0.2,0.1,0.3c0,0.1,0.1,0.2,0.2,0.3
			c0.1,0.1,0.2,0.1,0.3,0.2c0.1,0.1,0.2,0.1,0.3,0.1c0.1,0,0.2,0,0.2,0c0.1,0,0.3-0.1,0.4-0.2l0.1-0.2c0.1-0.1,0.1-0.3,0.1-0.4v-0.3
			C545.6,236.3,545.5,236.2,545.5,236.1z"/>
		<path class="st3" d="M618.6,238.2c-0.5-0.5-1-1-1.4-1.6c-0.9-1.2-1.6-2.4-2-3.8c-0.1-0.4-0.6-0.5-0.9-0.3
			c-0.3-0.1-0.8,0.1-0.7,0.5c0.1,1.6-0.2,3.1-1.1,4.5c-0.4,0.7-1,1.3-1.6,1.8c-0.4,0.4-0.7,0.9-0.4,1.4c0.3,0.6,1,0.7,1.5,1
			c0.6,0.4,1.1,0.9,1.5,1.5c0.8,1.2,1.2,2.7,1.6,4.1c0.2,0.7,1.1,0.5,1.2-0.2c0.1-1.4,0.5-2.9,1.1-4.2c0.3-0.7,0.7-1.3,1.1-1.9
			c0.3-0.5,0.9-1,0.9-1.6C619.3,239,619,238.6,618.6,238.2L618.6,238.2z M617.9,239.7c-0.7,1.1-1.4,2.1-2,3.4
			c-0.2,0.5-0.4,1-0.5,1.6c-0.2-0.6-0.5-1.2-0.8-1.7c-0.7-1.2-1.6-2-2.9-2.7c-0.1-0.1-0.3-0.2-0.3-0.2c0,0,0.3-0.2,0.3-0.2
			c0.3-0.2,0.5-0.5,0.8-0.8c0.5-0.6,0.9-1.2,1.2-1.8c0.4-0.9,0.7-1.8,0.8-2.8c0.3,0.7,0.7,1.3,1.1,2c0.4,0.5,0.7,1,1.2,1.5
			c0.2,0.3,0.5,0.5,0.7,0.8C618,239.1,618.2,239.2,617.9,239.7L617.9,239.7z"/>
		<path class="st5" d="M720,108.5c0.2-0.3,0-0.7-0.2-0.8c-0.3-0.2-0.6-0.1-0.8,0.2c-1.1,1.6-2.5,3-4,4.2c0,0,0,0-0.1,0.1
			c-0.4-0.5-0.7-0.9-1.1-1.3c0.8-1.4,1.7-2.7,2.8-3.8c0.5-0.5-0.3-1.4-0.8-0.8c-1.1,1.1-2.1,2.4-2.9,3.8c-0.9-0.8-1.8-1.4-2.8-2
			l2.6-4.7c0.4-0.7-0.7-1.3-1-0.6c-0.9,1.6-1.8,3.2-2.7,4.8c-0.5-0.2-1-0.4-1.5-0.6c-0.3-0.1-0.7-0.2-1-0.3c0.5-1.6,1-3.2,1.5-4.8
			c0.2-0.7-0.9-1-1.1-0.3c-0.5,1.7-1,3.3-1.5,4.9c-1-0.1-2-0.2-3-0.1c-0.3-1.9-0.7-3.7-1.2-5.5c-0.2-0.7-1.3-0.4-1.1,0.3
			c0.5,1.8,0.8,3.6,1.2,5.4c-1,0.1-2,0.4-2.9,0.7c-1-1.5-2-3.1-2.9-4.8c-0.4-0.7-1.4-0.1-1,0.6c0.8,1.6,1.8,3.1,2.8,4.6
			c-0.7,0.3-1.4,0.7-2,1.1c-0.4,0.2-0.7,0.5-1.1,0.8c-1.2-1.4-2.4-2.7-3.6-4.1c-0.2-0.2-0.6-0.2-0.8,0c-0.2,0.2-0.2,0.6,0,0.8
			c1.1,1.4,2.3,2.7,3.5,4c-0.7,0.6-1.4,1.2-2.1,1.8l-3.8-3.6c-0.6-0.5-1.4,0.3-0.8,0.8l3.7,3.5c-0.2,0.2-0.4,0.4-0.7,0.6
			c0,0,0,0,0,0c0,0,0,0,0,0c-0.4,0.5-0.2,1.1,0.2,1.3c0.7,1.1,1.6,2.1,2.5,3c-0.9,0.8-1.7,1.7-2.6,2.5c-0.2,0.2-0.2,0.6,0,0.8
			c0.2,0.2,0.6,0.2,0.8,0c0.9-0.9,1.8-1.7,2.6-2.6c0.7,0.6,1.4,1.1,2.1,1.5c-0.7,0.7-1.3,1.5-1.8,2.4c-0.2,0.3-0.1,0.7,0.2,0.8
			c0.3,0.1,0.6,0.1,0.8-0.2c0.2-0.3,0.3-0.5,0.5-0.8c0.1-0.1,0.2-0.3,0.3-0.4c0,0,0.1-0.1,0.1-0.1c0,0,0.1-0.1,0-0.1
			c0,0,0.1-0.1,0.1-0.1c0.3-0.3,0.5-0.6,0.8-0.9c0.8,0.4,1.6,0.8,2.5,1.1c0,0,0,0.1,0,0.1c0,0,0,0.1,0,0.1c0,0,0,0,0,0
			c0,0.1,0,0.2,0,0.3c0,0.2-0.1,0.3-0.1,0.5c-0.1,0.3-0.2,0.6-0.3,0.9c-0.2,0.6-0.5,1.1-0.8,1.7c-0.2,0.3-0.1,0.7,0.2,0.8
			c0.3,0.2,0.6,0.1,0.8-0.2c0.7-1.2,1.2-2.5,1.4-3.9c0,0,0,0,0.1,0c1.1,0.3,2.2,0.4,3.3,0.5c-0.1,0.7,0,1.4,0.2,2.1
			c0.1,0.3,0.4,0.5,0.7,0.4c0.3-0.1,0.5-0.4,0.4-0.7c-0.1-0.2-0.1-0.5-0.2-0.7c0,0,0-0.1,0-0.1c0,0,0-0.1,0-0.1c0-0.1,0-0.2,0-0.4
			c0-0.2,0-0.3,0-0.5c1.2-0.1,2.4-0.3,3.6-0.6c0.4,1.4,0.9,2.9,1.6,4.2c0.1,0.3,0.6,0.4,0.8,0.2c0.3-0.2,0.3-0.5,0.2-0.8
			c-0.6-1.3-1.1-2.6-1.5-4c0.9-0.3,1.8-0.8,2.6-1.3c0.7,0.8,1.5,1.7,2.2,2.5c0.2,0.2,0.6,0.2,0.8,0c0.2-0.2,0.2-0.6,0-0.8
			c-0.7-0.8-1.4-1.6-2.1-2.3c0.8-0.6,1.5-1.3,2.1-2.1c1.2,1.3,2.4,2.5,3.7,3.8c0.2,0.2,0.6,0.2,0.8,0c0.2-0.2,0.2-0.6,0-0.8
			c-1.3-1.3-2.5-2.6-3.8-3.9c0.4-0.6,0.8-1.2,1.1-1.9c0.3-0.6-0.1-1.2-0.6-1.3c-0.1-0.1-0.2-0.2-0.2-0.4
			C717.2,111.8,718.7,110.3,720,108.5L720,108.5z M695.5,118.4c-1.7-1.1-3.1-2.5-4.3-4.2c1.6-1.5,3.2-3,5.1-4.2
			c0.6-0.3,1.2-0.7,1.8-0.9c-0.4,0.5-0.7,1.2-0.9,1.8c-0.4,1.5-0.3,3.1,0,4.6c0.3,1.5,0.8,2.9,1.8,4.1c0.2,0.2,0.5,0.5,0.7,0.7
			C698.2,120,696.8,119.3,695.5,118.4L695.5,118.4z M706,119.6c-1.6,0.8-3.7,0.6-5.2-0.4c-0.9-0.7-1.4-1.6-1.7-2.7
			c-0.3-1.2-0.6-2.4-0.5-3.7c0.1-2.6,2.2-4.3,4.7-4.3c0.3,0,0.5-0.1,0.6-0.3c1.1,0.1,2.1,0.3,3.2,0.6c1.5,1.5,2.4,3.7,2.1,5.9
			C709,116.7,707.9,118.6,706,119.6L706,119.6z M708.5,120c1.1-1,1.9-2.3,2.3-3.8c0.6-2,0.4-4-0.4-5.9c1.7,1.1,3.1,2.6,4.1,4.4
			C713.1,117.1,711,118.9,708.5,120L708.5,120z"/>
		<path class="st6" d="M703.9,94.5c-0.2-0.6-0.4-1-0.8-1.4c-0.2-0.2-0.4-0.3-0.7-0.5c-0.5-0.3-1.1-0.4-1.6-0.4h-0.2
			c-0.4,0-0.9,0.1-1.3,0.3c-0.4,0.1-0.8,0.4-1,0.7c-0.3,0.3-0.5,0.6-0.7,1c-0.2,0.4-0.3,0.8-0.3,1.3l0.1,0.9c0.2,0.6,0.4,1,0.8,1.4
			c0.2,0.2,0.4,0.3,0.7,0.5c0.5,0.3,1.1,0.4,1.6,0.4h0.2c0.4,0,0.9-0.1,1.3-0.3c0.4-0.1,0.8-0.4,1-0.7c0.3-0.3,0.5-0.6,0.7-1
			c0.2-0.4,0.3-0.8,0.3-1.3C704,95.1,704,94.8,703.9,94.5z"/>
		<polygon class="st5" points="710.9,140.9 707.8,138.4 708.7,142.7 705.3,144.7 709.1,144.9 709.8,148.7 712,145.6 715.6,148 
			714.2,144.7 718,142.9 714,141.5 713.8,137.1 		"/>
		<polygon class="st6" points="593.1,271.7 589.9,269.3 590.8,273.5 587.5,275.5 591.3,275.8 591.9,279.6 594.2,276.4 597.8,278.9 
			596.4,275.5 600.2,273.8 596.2,272.4 596,267.9 		"/>
		<path class="st3" d="M736.4,77.2c-1-2.3-3.2-3.6-5.4-4.8c-0.1-0.1-0.3-0.1-0.4-0.1c-3.7-0.9-7.9,0.3-10.4,3.2
			c-2.6,3-3.1,7.5-1.3,11.1c1.8,3.5,5.9,5.7,9.8,5.3c3.8-0.4,7.2-3.3,8.2-7C737.6,82.5,737.4,79.5,736.4,77.2L736.4,77.2z M736,83
			c-0.3,3.6-2.9,6.6-6.4,7.6c-3.3,0.9-7-0.6-9-3.4c-2.1-2.9-2-6.8-0.2-9.8c2.1-3.4,6.5-4.9,10.3-3.7c1.6,0.9,3.3,1.8,4.2,3.4
			C736,78.7,736.2,81,736,83L736,83z"/>
		<path class="st3" d="M728.5,62.5c0-0.8-1.2-0.8-1.2,0c-0.1,2.5-0.1,5,0,7.5c0,0.8,1.2,0.8,1.2,0C728.4,67.6,728.4,65.1,728.5,62.5
			z"/>
		<path class="st3" d="M739.2,64.6c-1.6,2.4-3.2,4.8-4.8,7.2c-0.4,0.6,0.6,1.2,1,0.6c1.6-2.4,3.2-4.8,4.8-7.2
			C740.6,64.5,739.6,63.9,739.2,64.6z"/>
		<path class="st3" d="M744.5,69.7c-2,1.9-4,3.8-6.1,5.7c-0.6,0.5,0.3,1.3,0.8,0.8c2.1-1.8,4.1-3.7,6.1-5.7
			C745.9,70,745,69.1,744.5,69.7L744.5,69.7z"/>
		<path class="st3" d="M747.3,81.6c-2.6-0.2-5.2-0.3-7.9-0.5c-0.8,0-0.8,1.1,0,1.2c2.6,0.2,5.2,0.3,7.9,0.5
			C748,82.8,748,81.6,747.3,81.6z"/>
		<path class="st3" d="M746.1,90.1c-2.2-1.3-4.4-2.6-6.5-4.1c-0.3-0.2-0.7,0-0.8,0.2c-0.2,0.3,0,0.6,0.2,0.8
			c2.1,1.5,4.3,2.9,6.5,4.1C746.2,91.5,746.8,90.5,746.1,90.1z"/>
		<path class="st3" d="M741.9,97.9c-1.7-2.1-3.6-4.1-5.7-5.9c-0.2-0.2-0.6-0.2-0.8,0c-0.2,0.2-0.2,0.6,0,0.8c2.1,1.8,4,3.8,5.7,5.9
			c0.2,0.2,0.6,0.2,0.8,0C742.1,98.5,742.1,98.2,741.9,97.9z"/>
		<path class="st3" d="M731.5,95.6c0-0.3-0.2-0.6-0.6-0.6c-0.3,0-0.6,0.3-0.6,0.6c0.3,2.6,0.7,5.1,1.2,7.7c0.1,0.7,1.3,0.4,1.1-0.3
			C732.2,100.5,731.8,98,731.5,95.6z"/>
		<path class="st3" d="M723.7,93.8c-0.2-0.1-0.7-0.1-0.8,0.2c-1.1,2.7-2.1,5.4-2.9,8.2c-0.2,0.7,0.9,1,1.1,0.3
			c0.8-2.7,1.7-5.4,2.8-8C724,94.3,724,94,723.7,93.8z"/>
		<path class="st3" d="M718,90.1c-0.2-0.2-0.6-0.2-0.8,0c-2,1.6-4,3.3-5.8,5.1c-0.6,0.5,0.3,1.4,0.8,0.8c1.9-1.8,3.8-3.4,5.8-5.1
			C718.3,90.7,718.2,90.3,718,90.1z"/>
		<path class="st3" d="M714.3,84.1c-2.6,0.6-5.1,1.1-7.7,1.7c-0.7,0.2-0.4,1.3,0.3,1.1l7.7-1.7C715.3,85,715,83.9,714.3,84.1z"/>
		<path class="st3" d="M716.7,77.7c-2.9-1.3-5.8-2.4-8.8-3.2c-0.7-0.2-1,0.9-0.3,1.1c2.9,0.8,5.8,1.9,8.5,3.1
			C716.8,79,717.4,78,716.7,77.7L716.7,77.7z"/>
		<path class="st3" d="M721,70.3c-1.6-1.8-3-3.8-4.2-5.9c-0.4-0.7-1.4-0.1-1,0.6c1.2,2.2,2.7,4.3,4.3,6.1
			C720.7,71.7,721.5,70.9,721,70.3L721,70.3z"/>
		<path class="st3" d="M724.7,68.4c-0.9-3.1-1.9-6.2-3-9.2c-0.1-0.4-0.7-0.2-0.6,0.2c1.1,3,2.1,6.1,3,9.2
			C724.2,68.9,724.8,68.7,724.7,68.4z"/>
		<path class="st3" d="M734.3,60.4c-0.9,2.3-1.7,4.6-2.4,6.9c-0.1,0.4,0.5,0.5,0.6,0.2c0.7-2.3,1.5-4.6,2.4-6.9
			C735,60.2,734.5,60.1,734.3,60.4z"/>
		<path class="st3" d="M744.4,65c-1.8,2.2-3.6,4.3-5.4,6.5c-0.2,0.3,0.2,0.7,0.4,0.4c1.8-2.2,3.6-4.3,5.4-6.5
			C745,65.2,744.6,64.7,744.4,65z"/>
		<path class="st3" d="M748.2,75.5c-2.1,0.8-4.3,1.5-6.4,2.3c-0.4,0.1-0.2,0.7,0.2,0.6c2.1-0.8,4.3-1.5,6.4-2.3
			C748.7,76,748.6,75.4,748.2,75.5z"/>
		<path class="st3" d="M749.4,86.3c-1.8-0.8-3.8-1.4-5.7-1.8c-0.4-0.1-0.5,0.5-0.2,0.6c1.9,0.4,3.8,1,5.6,1.8
			C749.4,87,749.7,86.5,749.4,86.3L749.4,86.3z"/>
		<path class="st3" d="M746.5,96c-2-1.2-3.9-2.5-5.7-3.9c-0.3-0.2-0.7,0.2-0.4,0.4c1.9,1.5,3.8,2.8,5.9,4
			C746.6,96.7,746.9,96.2,746.5,96L746.5,96z"/>
		<path class="st3" d="M739.3,102.5c-1.6-2-3.1-4.2-4.3-6.5c-0.2-0.3-0.7,0-0.5,0.3c1.3,2.3,2.8,4.5,4.4,6.6
			C739.1,103.2,739.5,102.8,739.3,102.5L739.3,102.5z"/>
		<path class="st3" d="M726.5,98.6c-0.1,2.6-0.2,5.2-0.3,7.9c0,0.4,0.6,0.4,0.6,0c0.1-2.6,0.2-5.2,0.3-7.9
			C727.2,98.2,726.6,98.2,726.5,98.6z"/>
		<path class="st3" d="M718.4,94.7c-0.9,1.4-1.7,2.8-2.4,4.3c-0.2,0.3,0.4,0.6,0.5,0.3c0.7-1.5,1.5-3,2.4-4.3
			C719.1,94.7,718.6,94.4,718.4,94.7z"/>
		<path class="st3" d="M712.8,88.8c-2.2,0.9-4.2,2-6.2,3.4c-0.3,0.2,0,0.7,0.3,0.5c2-1.3,4-2.4,6.2-3.4
			C713.4,89.1,713.1,88.6,712.8,88.8z"/>
		<path class="st3" d="M712.3,81c-2.8,0-5.6-0.3-8.3-0.9c-0.4-0.1-0.5,0.5-0.2,0.6c2.8,0.6,5.6,0.8,8.4,0.9
			C712.6,81.6,712.6,81,712.3,81L712.3,81z"/>
		<path class="st3" d="M718.6,72.7c-2.4-2.7-5.4-4.8-8.7-6.3c-0.3-0.2-0.6,0.4-0.3,0.5c3.2,1.5,6.2,3.6,8.6,6.2
			C718.4,73.4,718.8,73,718.6,72.7L718.6,72.7z"/>
		<polygon class="st6" points="726.2,119.6 723.2,125 729.9,125.3 		"/>
		<path class="st5" d="M731.1,113.6c-0.2,0.5-3,5.9-3,5.9l5.9,0.3L731.1,113.6z"/>
		<polygon class="st5" points="734.3,122.1 731.3,127.6 737.8,127.5 		"/>
		<polygon class="st5" points="741.8,121.1 739.1,125.8 744.5,125.8 		"/>
		<polygon class="st5" points="733.9,131.8 730.9,136.7 736.9,136.7 		"/>
		<polygon class="st5" points="741.8,131.8 739.3,136.3 745.3,136.2 		"/>
		<polygon class="st6" points="741.3,139.2 738.8,144.1 744.5,143.7 		"/>
		<polygon class="st5" points="513.8,260.7 510.8,265.5 516.8,265.5 		"/>
		<polygon class="st5" points="558.5,269.7 556,274.3 562,274.1 		"/>
		<polygon class="st5" points="564.4,273.8 561.9,278.6 567.5,278.3 		"/>
		<path class="st7" d="M730.8,279.4c-1-1.7-1.9-3.4-2.9-5.1c0.7-0.3,1.3-0.7,1.9-1.1c1-0.6,0.1-2.2-0.9-1.5c-5.3,3.5-12,4.4-18,2.8
			c-0.1-0.1-0.2-0.2-0.4-0.2s-0.3,0-0.4,0c-1.4-0.4-2.7-1-4-1.7c-1-0.6-1.9,1-0.9,1.5c1.3,0.7,2.6,1.2,3.9,1.7l-1.4,4.4
			c-0.1,0.4,0.2,1,0.6,1.1c0.5,0.1,0.9-0.1,1.1-0.6c0.5-1.5,0.9-2.9,1.4-4.4c1.3,0.3,2.6,0.5,3.9,0.6v8.3c0,1.1,1.8,1.1,1.8,0V277
			c1.3,0,2.6-0.1,3.9-0.3c0.5,1.5,0.9,2.9,1.4,4.4c0.1,0.4,0.6,0.8,1.1,0.6c0.4-0.1,0.8-0.6,0.6-1.1c-0.4-1.4-0.9-2.8-1.3-4.2
			c1.4-0.3,2.8-0.8,4.1-1.3c0,0,0,0.1,0.1,0.1c1,1.7,1.9,3.4,2.9,5.1c0.2,0.4,0.8,0.6,1.2,0.3C731,280.4,731.1,279.8,730.8,279.4
			L730.8,279.4z"/>
		<path class="st5" d="M551.5,267c1.2-0.8,2.2-1.8,3.1-2.9c1-1.3,1.7-2.8,2.1-4.3c0.1-0.3-0.3-0.5-0.5-0.3c-1.4,1.4-3.6,1.4-5.4,1.5
			c-1.8,0.1-3.6,0.3-5.1,1.4c-2.6,1.8-3.9,4.9-5.8,7.3c-0.9,1.2-2.1,2.2-3.5,2.7c0.6-2.3,2.4-4,3.9-5.8c0.9-1,1.7-2,2.3-3.1
			c0.7-1.2,1.1-2.5,1.4-3.9c0.3-1.6,0.3-3.1,0.1-4.7c0-0.3-0.5-0.3-0.6,0c-0.5,1.7-2.1,2.6-3.6,3.5c-1.6,1-3.1,2.1-3.7,3.9
			c-0.7,2.1-0.2,4.4-0.2,6.5c0,1.1-0.2,2.2-0.7,3.2c-0.4,0.9-1,1.6-1.8,2.2c-1.6,1.3-3.6,2.1-5.6,2.7c1.2-2.6,3.2-4.8,4.7-7.2
			c1.4-2.3,2.3-5.1,1.3-7.8c-0.5-1.3-1.3-2.4-2.5-3c-0.2-0.1-0.5,0.1-0.4,0.3c0.4,1.5-0.4,2.8-1.2,4c-0.8,1.3-1.8,2.5-2.1,4.1
			c-0.4,2,0.4,3.9,0.5,5.9c0,1.5-0.5,2.9-1.5,4c-1,0.5-2.1,0.9-3.2,1c-0.5,0.1-1.3,0-1.6,0.4c0,0-0.1,0.1-0.1,0.1
			c-0.1,0-0.1,0.1-0.2,0.1c-0.1,0.1-0.1,0.3-0.1,0.4c-0.1,0.1-0.1,0.2-0.1,0.4l0,0c-0.2,0.2,10.2-2.5,12.9-4.7
			c0.8,2.2,0.4,4.7,1.5,6.7c1.1,2,3.6,3,5.8,2.3c1.2-0.4,2.2-1.2,2.8-2.3c0.1-0.2,0-0.4-0.3-0.4c-1.6-0.1-2.8-1.3-3.8-2.5
			c-1.1-1.2-2-2.6-3.4-3.6c-0.6-0.4-1.3-0.7-2-0.8c0.2-0.6,0.7-1,1.3-1.2c0,0,0.1,0,0.1,0c0,0,0.1,0,0.1-0.1
			c0.5-0.1,0.9-0.2,1.4-0.1c1.7,0.1,3,1.4,4.2,2.5c1.2,1.1,2.5,2,4.1,2.4c1.4,0.3,3,0.2,4.4-0.2c1.6-0.5,3-1.5,3.9-2.9
			c0.1-0.2-0.1-0.5-0.3-0.4c-2.5,1-5-0.4-7.3-1.5c-1.1-0.5-2.3-1-3.5-1.2c-1.2-0.2-2.4-0.3-3.6-0.1c-0.4,0-0.8,0.1-1.1,0.2
			c2.7-1.4,5.7-1.9,8.6-2.8C548.8,268.4,550.2,267.8,551.5,267L551.5,267z"/>
		<path class="st7" d="M732.5,81.8c-0.2-0.7-0.5-1.2-1-1.7c-0.2-0.2-0.3-0.3-0.5-0.5c-0.3-0.4-0.8-0.6-1.2-0.8
			c-0.5-0.2-1-0.3-1.5-0.3c-0.5,0-1,0.1-1.5,0.3c-0.5,0.2-0.9,0.4-1.2,0.8c-0.2,0.3-0.4,0.5-0.6,0.8c-0.3,0.6-0.5,1.2-0.5,1.9l0.1,1
			c0.2,0.7,0.5,1.2,1,1.7l0.5,0.5c0.3,0.4,0.8,0.6,1.2,0.8c0.5,0.2,1,0.3,1.5,0.3c0.5,0,1-0.1,1.5-0.3c0.5-0.2,0.9-0.4,1.2-0.8
			c0.2-0.3,0.4-0.5,0.6-0.8c0.3-0.6,0.5-1.2,0.5-1.9L732.5,81.8z"/>
		<path class="st4" d="M717.6,29.3c1.7-1.4,3.6-2.6,5.6-3.4c3.3,1.3,7.1,1.6,10.4,0.3c2.9-1.2,5.5-3.6,6.2-6.8
			c0.1-0.4-0.3-0.8-0.7-0.6c-3,2.1-6.9,1-10.2,1.8c-2.4,0.6-4.9,2.2-6.4,4.2c-0.9,0.4-3.3,1.9-4.7,3c-0.1,0.1-0.2,0.1-0.3,0.2
			c0.7-1.9,1.3-3.9,1.8-6c3.1-2.9,4.9-7.2,4.6-11.5c-0.3-4.3-2.6-8.1-6-10.6c-0.3-0.2-0.7,0.2-0.6,0.5c0.7,3.8-0.9,7.5-1.4,11.2
			c-0.2,1.9-0.1,3.7,0.4,5.5c0.5,1.6,1.2,3.1,2,4.6c-0.5,2.5-1.3,5-2.2,7.4c-2.2,2.2-3.9,4.7-5.4,7.5c0.5-3.6,0.3-7.4-0.5-10.8
			c-0.3-1.3-0.7-2.5-1.1-3.8c0-0.1,0-0.1,0-0.2c0.1-0.1,0.1-0.3,0.1-0.4c0.4-3.2-0.5-6.5-2.3-9.2c-1-1.5-2.2-2.7-3.6-3.8
			c-1.7-1.3-3.8-2-5.5-3.4c-0.3-0.3-0.9-0.1-0.9,0.4c0.7,7,5.7,12,11,16c0.6,1.5,1,2.9,1.4,4.5c0.5,2.3,0.7,4.6,0.8,6.9
			c0,2.3-0.3,4.5-0.7,6.7c-0.6,1.4-1.2,2.9-1.7,4.3c-1.3,3.5-2.6,7.1-4.2,10.5c-0.2,0.2-0.4,0.4-0.6,0.6c-2,2.1-4,4.3-5.5,6.7
			c-0.3,0.4,0.3,0.9,0.7,0.6c1.8-1.8,3.2-3.9,4.9-5.8c0.1-0.1,0.2-0.2,0.3-0.3c0.9,0.6,1.8,1.4,2.8,1.9c1.3,0.6,2.8,0.5,4.2,0.1
			c2.5-0.8,4.4-2.6,5.5-4.9c0.1-0.3-0.2-0.5-0.4-0.3c-0.8,0.7-2.1,1-3.1,1.3c-1.1,0.2-2.2,0.3-3.3,0.3c-1.5,0.1-3.1,0.1-4.6,0.5
			c1.3-1.3,2.5-2.7,4-3.8c3.1-2.2,5.8-3.3,6.8-3.7c0.5-0.2,1.1-0.3,1.6-0.5c0,0,0.1,0.1,0.2,0.1c3.6,1.7,7.9,1.9,11.7,0.7
			c4.3-1.3,7.4-4.4,9.9-8c0.3-0.4-0.2-0.9-0.6-0.6c-1.8,1.1-4.1,1.3-6.2,1.4c-2,0.1-4.1,0.1-6.1,0.3c-3.6,0.5-7,2.2-9.2,5.2
			c-0.4,0.1-0.8,0.2-1.1,0.3c-0.6,0.2-1.3,0.4-1.9,0.7c0.4-0.6,0.8-1.1,1.3-1.7c1-1.2,2-2.3,3-3.5c0.1-0.1,0.3-0.3,0.4-0.4
			c2.9-0.1,5.5-2.4,7.4-4.4c2.1-2.2,4.5-4.7,5.5-7.7c0.2-0.5-0.5-0.8-0.8-0.5c-2.3,2.4-5.9,2.4-8.6,4.1c-1.3,0.8-2.5,2-3.2,3.4
			c-0.8,1.5-1.6,3.3-1.6,5c0,0-1.8,2.2-2.8,3.4c-0.8,1-1.7,2-2.4,3.1c-2.3,1.2-4.4,2.8-6.3,4.6c2.3-5.3,3.8-10.9,6.6-15.9
			C714.5,32,717.3,29.6,717.6,29.3L717.6,29.3z M730.3,21.2c2.7-0.2,5.6,0.2,8.1-0.9c-1,2.3-3,4-5.4,4.9c-2.7,1-5.5,0.8-8.1,0.1
			c0.5-0.2,1.1-0.3,1.6-0.4c3.1-0.7,6.9-0.5,9.4-2.8c0.1-0.1,0-0.3-0.2-0.2c-2.9,1.6-6.1,1.5-9.3,2.1c-1.1,0.2-2.1,0.5-3.2,0.9
			c0,0,0,0,0,0C725.1,22.8,727.6,21.5,730.3,21.2L730.3,21.2z M717.2,16.8c-0.5-1.9-0.5-3.8-0.1-5.8c0.5-3.2,1.7-6.4,1.3-9.6
			c2.8,2.4,4.4,5.9,4.6,9.5c0.2,3.5-1,7-3.3,9.7c0.7-4,0.8-8.2,0.2-12.2c0-0.2-0.3-0.1-0.3,0c0,3.7-0.1,7.4-0.7,11.1
			c-0.1,0.5-0.2,1.1-0.3,1.6C718.1,19.7,717.6,18.3,717.2,16.8z M703.9,13.4c-0.1-0.1-0.4,0-0.3,0.2c1.4,2,2.6,4.1,3.5,6.2
			c-4.2-3.4-8.2-7.6-9.1-13c1.3,0.8,2.6,1.5,3.9,2.3c1.5,0.9,2.8,2.2,3.8,3.6c1.7,2.4,2.6,5.3,2.8,8.3
			C707.5,18.2,705.9,15.6,703.9,13.4L703.9,13.4z M709.9,55.5c1,0,2.1-0.1,3.1-0.4c0.5-0.1,1-0.4,1.4-0.6c-1.1,1.4-2.8,2.5-4.6,3
			c-1.3,0.3-2.7,0.3-3.9-0.4c-0.6-0.4-1.1-0.8-1.7-1.2C706.2,55.5,708,55.6,709.9,55.5L709.9,55.5z M720.8,43.3
			c1.8-1,3.8-1.4,5.9-1.5c2-0.1,4-0.1,6-0.2c1.4-0.1,2.8-0.4,4.1-0.8c-1,1.3-2.1,2.6-3.4,3.6c-1.5,1.2-3.2,2-5,2.6
			c-3.3,1-6.6,0.9-9.8-0.2c1.5-0.3,3-0.6,4.5-0.9c2.9-0.6,6.1-1.1,8.7-2.7c0.2-0.1,0.1-0.4-0.1-0.3c-2.7,0.7-5.4,1.4-8.2,1.9
			c-2.1,0.4-4.2,0.7-6.3,1.3C718.3,45,719.5,44,720.8,43.3L720.8,43.3z M719.3,36.7c0.9-1.3,2.1-2.4,3.6-3c2.1-0.9,4.4-1.3,6.3-2.4
			c-1.2,2-2.8,3.7-4.4,5.3c-0.9,1-1.9,1.9-3.1,2.7c-0.7,0.5-1.5,0.8-2.2,1.1c0.5-0.5,0.9-0.9,1.4-1.4c0.6-0.5,1.1-1.1,1.7-1.6
			c0.5-0.5,1.1-0.9,1.5-1.5c0.1-0.1,0-0.3-0.2-0.2c-0.6,0.2-1.2,0.7-1.7,1.1c-0.6,0.5-1.2,1-1.8,1.5c-1,0.9-1.9,1.8-2.8,2.7
			C717.8,39.5,718.5,37.9,719.3,36.7L719.3,36.7z"/>
		<path class="st0" d="M669.1,163c-1.2,0.6-2.5,1.2-3.8,1.8l1.3-4.7c0.2-0.7-0.9-1-1.1-0.3l-1.4,5l-3.9-2.6c-0.6-0.4-1.2,0.6-0.6,1
			c1.2,0.8,2.4,1.6,3.6,2.4c-1.3,0.5-2.6,0.8-4,1.2c-0.7,0.2-0.4,1.3,0.3,1.1c1.4-0.3,2.7-0.7,4-1.2c-0.3,1.3-0.7,2.5-1,3.8
			c-0.2,0.7,0.9,1,1.1,0.3c0.4-1.4,0.8-2.8,1.1-4.2c1.2,0.8,2.4,1.6,3.7,2.4c0.6,0.4,1.2-0.6,0.6-1c-1.1-0.7-2.2-1.5-3.3-2.2
			c1.3-0.5,2.6-1.1,3.9-1.8C670.3,163.7,669.7,162.6,669.1,163L669.1,163z"/>
		<path class="st0" d="M746.4,56.4c-1-2.4-2.3-4.7-4-6.7c-0.4-0.4-1-0.9-1.5-0.4c-0.2,0.2-0.3,0.5-0.5,0.7c-0.2,0.3-0.4,0.7-0.6,1
			c-0.8,1.3-1.5,2.6-2.3,3.9c-0.1,0.2-0.1,0.4,0,0.5c-0.5,0.3-0.4,1.2,0.2,1.1c2.7-0.2,5.3-0.1,7.9,0.5
			C746.1,57.3,746.6,56.9,746.4,56.4L746.4,56.4z M738.7,55.4c0.5-0.9,1-1.7,1.5-2.6c0.3-0.4,0.5-0.9,0.8-1.3
			c0.1-0.2,0.3-0.5,0.4-0.7c0.1-0.1,0.1-0.2,0.2-0.3c0.1,0.1,0.2,0.3,0.3,0.4c0.2,0.3,0.4,0.5,0.6,0.8c0.4,0.5,0.7,1,1.1,1.6
			c0.5,0.8,0.9,1.6,1.3,2.5C742.8,55.4,740.7,55.3,738.7,55.4L738.7,55.4z"/>
		<path class="st0" d="M694.5,87.4c-1.2-2-2.5-3.9-4-5.6c-0.3-0.3-0.7-0.2-0.9,0.1c-1.2,1.6-2.1,3.5-2.6,5.5c0,0.2,0,0.4,0.1,0.5
			c-0.1,0-0.3,0.1-0.4,0.1c-0.7,0.2-0.4,1.3,0.3,1.1c2.3-0.5,4.7-0.8,7-0.8C694.4,88.3,694.8,87.8,694.5,87.4L694.5,87.4z
			 M690.1,83.1c1,1.3,2,2.6,2.8,4c-1.6,0.1-3.2,0.2-4.8,0.5C688.5,86,689.2,84.5,690.1,83.1z"/>
		<path class="st0" d="M746.1,203.7c-0.3-0.7-0.6-1.4-0.9-2c-0.7-1.3-1.6-2.5-2.6-3.6c-0.3-0.3-0.7-0.2-0.9,0.1
			c-1.3,2.4-2.7,4.8-4,7.2c-0.1,0.1-0.1,0.3-0.1,0.4c-0.6,0.2-0.5,1.1,0.2,1.1c1.8,0,3.5,0,5.3,0c0.8,0,1.7,0.1,2.5,0
			c0.7-0.1,1.2-0.6,1.2-1.3C746.6,205,746.3,204.3,746.1,203.7L746.1,203.7z M744.4,205.8c-0.7,0-1.5,0-2.2,0c-1.2,0-2.3,0-3.5,0
			c1.2-2.1,2.3-4.2,3.5-6.3c1.5,1.7,2.6,3.7,3.2,5.9c0,0.1,0.1,0.2,0.1,0.3c0,0,0,0,0,0c0,0,0,0,0,0
			C745.2,205.9,744.7,205.8,744.4,205.8L744.4,205.8z"/>
		<path class="st0" d="M654.3,279.1c-2.6,0-5.1-0.1-7.6-0.5c-0.3,0-0.5,0.2-0.6,0.5c-0.2,0.2-0.3,0.4-0.1,0.7l4.2,6.3
			c0.3,0.4,0.8,0.4,1,0c1.4-1.9,2.6-3.9,3.6-6.1C655,279.6,654.8,279.1,654.3,279.1L654.3,279.1z M647.5,279.9
			c2,0.2,3.9,0.3,5.9,0.4c-0.7,1.6-1.6,3.1-2.6,4.5C649.7,283.1,648.6,281.5,647.5,279.9L647.5,279.9z"/>
		<path class="st0" d="M610.5,276.2c-2.3-0.7-4-2.9-4.1-5.3c0-0.4-0.4-0.6-0.8-0.5c-0.3,0.1-0.6,0.3-0.5,0.7c0.2,1.1,0,2.2-0.6,3.1
			c-0.6,0.9-1.8,1.4-2,2.5c-0.2,1.1,1.1,1.7,1.8,2.4c0.8,0.8,1.5,1.9,1.9,3c0.2,0.4,0.8,0.6,1.1,0.1c0.9-1.8,2.1-3.5,3.4-5
			C611.1,276.9,611,276.3,610.5,276.2L610.5,276.2z M605.8,278.8c-0.4-0.4-0.8-0.8-1.2-1.2c-0.2-0.2-0.4-0.3-0.6-0.5
			c-0.2-0.2-0.1-0.4,0.1-0.6c0.4-0.4,0.8-0.7,1.2-1.1c0.3-0.4,0.6-0.9,0.8-1.4c0,0,0-0.1,0-0.1c0.7,1.4,1.9,2.5,3.3,3.1
			c-0.9,1.1-1.8,2.3-2.5,3.5C606.6,279.9,606.2,279.4,605.8,278.8z"/>
		<path class="st0" d="M741.6,7.3c-1.6,0.4-3.2,0.9-4.8,1.3c0.8-1.6,1.6-3.3,2.4-4.9c0.3-0.7-0.7-1.3-1-0.6
			c-0.8,1.7-1.7,3.5-2.5,5.2c-1.1-1-2.2-2.1-3.3-3.1c-0.6-0.5-1.4,0.3-0.8,0.8c1.1,1,2.2,2,3.3,3c-1.7,0.5-3.5,0.9-5.2,1.4
			c-0.7,0.2-0.4,1.3,0.3,1.1c1.6-0.4,3.1-0.8,4.7-1.3c-0.6,1.3-1.3,2.6-1.9,3.9c-0.3,0.7,0.7,1.3,1,0.6c0.8-1.5,1.5-3.1,2.3-4.6
			c1,1,1.9,1.9,2.8,2.9c0.5,0.6,1.3-0.3,0.8-0.8c-0.8-0.9-1.7-1.8-2.5-2.6c1.6-0.4,3.3-0.9,4.9-1.3C742.6,8.2,742.3,7,741.6,7.3
			L741.6,7.3z"/>
		<path class="st0" d="M506.4,277.5c-2.1-1.1-3.6-3.3-3.8-5.7c0-0.3,0-0.5,0-0.8c0-0.8-1.2-0.8-1.2,0c0,0.2,0,0.4,0,0.7
			c0,0,0,0,0,0.1c0,0,0,0,0,0c-0.1,2.8-1.6,5.4-4,7c-0.4,0.2-0.4,0.8,0,1c2.2,1.3,3.8,3.2,4.9,5.5c0.2,0.5,1,0.3,1.1-0.1
			c0.6-2.5,1.6-4.7,3.1-6.8C506.8,278.1,506.7,277.7,506.4,277.5L506.4,277.5z M502.7,283.4c-1-1.6-2.3-3.1-3.9-4.2
			c1.6-1.2,2.7-2.9,3.3-4.7c0.7,1.5,1.7,2.8,3.1,3.7C504.2,279.8,503.3,281.5,502.7,283.4L502.7,283.4z"/>
		<path class="st4" d="M496.8,264.8c-1-3-3.3-5.5-6.4-6.4c-2-0.6-4.3-0.6-6.4-0.3c-1.6,0.2-3.1,0.8-4.4,1.8
			c-2.8,2.3-3.8,6.1-3.3,9.6c0,0.3,0.3,0.4,0.6,0.4c0.9,0,1.7,0,2.6,0.1c0.2,0,0.3-0.1,0.4-0.1c4.1,0.2,8.2,0.3,12.3,0.5
			c1.1,0,2.1,0.1,3.2,0.1c1,0,1.6-0.2,1.8-1.3C497.4,267.8,497.2,266.2,496.8,264.8L496.8,264.8z"/>
		<path class="st7" d="M472.9,264.2c-2-0.5-4-1-6-1.5c-0.7-0.2-1.1,1-0.3,1.1c2,0.5,4,1,6,1.5C473.3,265.5,473.6,264.4,472.9,264.2z
			"/>
		<path class="st7" d="M474.4,260.4c-1.8-1.6-3.7-3-5.7-4.3c-0.6-0.4-1.2,0.6-0.6,1c1.9,1.2,3.7,2.6,5.4,4.1
			C474.1,261.7,475,260.9,474.4,260.4L474.4,260.4z"/>
		<path class="st7" d="M478,257c-1.1-1.8-2.3-3.5-3.5-5.3c-0.4-0.6-1.4,0-1,0.6c1.1,1.8,2.3,3.5,3.5,5.3
			C477.4,258.2,478.4,257.6,478,257z"/>
		<path class="st7" d="M483,254.8c-0.8-1.9-1.4-3.9-1.9-6c-0.2-0.7-1.3-0.4-1.1,0.3c0.5,2,1.2,4,1.9,6c0.1,0.3,0.4,0.5,0.7,0.4
			C482.9,255.5,483.2,255.1,483,254.8L483,254.8z"/>
		<path class="st7" d="M489.2,248.7c-0.3-0.1-0.7,0.1-0.7,0.4c-0.4,2.4-0.7,4.8-0.9,7.2c-0.1,0.8,1.1,0.8,1.2,0
			c0.2-2.3,0.5-4.6,0.9-6.9C489.6,249.1,489.5,248.8,489.2,248.7L489.2,248.7z"/>
		<path class="st7" d="M496.3,252c-1.7,1.6-2.9,3.6-3.5,5.9c-0.2,0.7,0.9,1,1.1,0.3c0.6-2,1.7-3.9,3.2-5.3
			C497.6,252.3,496.8,251.5,496.3,252L496.3,252z"/>
		<path class="st7" d="M504.3,257.2c-0.2-0.3-0.5-0.3-0.8-0.2c-2,0.9-3.8,2.3-5.1,4.1c-0.2,0.3,0,0.7,0.2,0.8c0.3,0.2,0.6,0,0.8-0.2
			c1.2-1.6,2.8-2.9,4.7-3.7C504.4,257.9,504.5,257.5,504.3,257.2L504.3,257.2z"/>
		<path class="st7" d="M506.4,262.1c-2.3,0.8-4.4,1.9-6.5,3.2c-0.6,0.4,0,1.4,0.6,1c1.9-1.3,4-2.3,6.2-3
			C507.4,263,507.1,261.8,506.4,262.1L506.4,262.1z"/>
		<path class="st6" d="M582,270.5c-0.1-0.4-0.3-0.8-0.6-1l-0.3-0.3c-0.2-0.2-0.5-0.4-0.8-0.5c-0.3-0.1-0.6-0.2-0.9-0.2
			c-0.3,0-0.6,0.1-0.9,0.2c-0.3,0.1-0.5,0.3-0.8,0.5c-0.1,0.2-0.2,0.3-0.4,0.5c-0.2,0.4-0.3,0.8-0.3,1.2c0,0.2,0.1,0.4,0.1,0.6
			c0.1,0.4,0.3,0.8,0.6,1l0.3,0.3c0.2,0.2,0.5,0.4,0.8,0.5c0.3,0.1,0.6,0.2,0.9,0.2c0.3,0,0.6-0.1,0.9-0.2c0.3-0.1,0.6-0.3,0.8-0.5
			c0.1-0.2,0.2-0.3,0.4-0.5c0.2-0.4,0.3-0.8,0.3-1.2C582.1,270.9,582,270.7,582,270.5z"/>
		<path class="st6" d="M617,254.6c-3,0-3.1,4.7,0,4.7C620.1,259.3,620.1,254.6,617,254.6z"/>
		<path class="st5" d="M589.7,261c-3,0-3.1,4.7,0,4.7S592.8,261,589.7,261z"/>
		<path class="st5" d="M514.2,275.8c-0.1-0.4-0.3-0.8-0.6-1c-0.2-0.1-0.3-0.2-0.5-0.4c-0.4-0.2-0.8-0.3-1.2-0.3h-0.3
			c-0.3,0-0.6,0.1-0.9,0.2c-0.3,0.1-0.5,0.3-0.8,0.5c-0.2,0.2-0.4,0.5-0.5,0.8c-0.1,0.3-0.2,0.6-0.2,0.9c0,0.2,0.1,0.4,0.1,0.6
			c0.1,0.4,0.3,0.8,0.6,1c0.2,0.1,0.3,0.2,0.5,0.4c0.4,0.2,0.8,0.3,1.2,0.3h0.3c0.3,0,0.6-0.1,0.9-0.2c0.3-0.1,0.5-0.3,0.8-0.5
			c0.2-0.2,0.4-0.5,0.5-0.8c0.1-0.3,0.2-0.6,0.2-0.9C514.3,276.2,514.2,276,514.2,275.8z"/>
		<path class="st5" d="M482.8,277.1c-3,0-3.1,4.7,0,4.7C485.9,281.8,485.9,277.1,482.8,277.1z"/>
		<path class="st5" d="M567.1,261.5c-0.1-0.4-0.3-0.8-0.6-1c-0.2-0.1-0.3-0.2-0.5-0.4c-0.4-0.2-0.8-0.3-1.2-0.3h-0.3
			c-0.3,0-0.6,0.1-0.9,0.2c-0.3,0.1-0.5,0.3-0.8,0.5c-0.2,0.2-0.4,0.5-0.5,0.8c-0.1,0.3-0.2,0.6-0.2,0.9c0,0.2,0.1,0.4,0.1,0.6
			c0.1,0.4,0.3,0.8,0.6,1c0.2,0.1,0.3,0.2,0.5,0.4c0.4,0.2,0.8,0.3,1.2,0.3h0.3c0.3,0,0.6-0.1,0.9-0.2c0.3-0.1,0.5-0.3,0.8-0.5
			c0.2-0.2,0.4-0.5,0.5-0.8c0.1-0.3,0.2-0.6,0.2-0.9C567.2,261.9,567.2,261.7,567.1,261.5z"/>
		<path class="st5" d="M684.1,275.7c-3,0-3.1,4.7,0,4.7C687.2,280.5,687.2,275.7,684.1,275.7z"/>
		<path class="st5" d="M737.8,246.7c-3,0-3.1,4.7,0,4.7C740.8,251.4,740.8,246.7,737.8,246.7z"/>
		<path class="st5" d="M699.7,131.9c-3,0-3.1,4.7,0,4.7C702.7,136.6,702.7,131.9,699.7,131.9z"/>
		<path class="st5" d="M730.7,51.3c-3,0-3.1,4.7,0,4.7C733.7,56,733.7,51.3,730.7,51.3z"/>
		<path class="st5" d="M711.9,3.8c-0.1-0.4-0.3-0.8-0.6-1c-0.2-0.1-0.3-0.2-0.5-0.4c-0.4-0.2-0.8-0.3-1.2-0.3h-0.3
			c-0.3,0-0.6,0.1-0.9,0.2c-0.3,0.1-0.5,0.3-0.8,0.5c-0.2,0.2-0.4,0.5-0.5,0.8c-0.1,0.3-0.2,0.6-0.2,0.9c0,0.2,0.1,0.4,0.1,0.6
			c0.1,0.4,0.3,0.8,0.6,1c0.2,0.1,0.3,0.2,0.5,0.4c0.4,0.2,0.8,0.3,1.2,0.3h0.3c0.3,0,0.6-0.1,0.9-0.2c0.3-0.1,0.5-0.3,0.8-0.5
			c0.2-0.2,0.4-0.5,0.5-0.8c0.1-0.3,0.2-0.6,0.2-0.9C711.9,4.2,711.9,4,711.9,3.8L711.9,3.8z"/>
	</g>
</g>
</svg>
